<?xml version="1.0" standalone="no"?>
<!DOCTYPE svg PUBLIC "-//W3C//DTD SVG 20010904//EN"
 "http://www.w3.org/TR/2001/REC-SVG-20010904/DTD/svg10.dtd">
<svg version="1.0" xmlns="http://www.w3.org/2000/svg"
 width="800.000000pt" height="1421.000000pt" viewBox="0 0 800.000000 1421.000000"
 preserveAspectRatio="xMidYMid meet">
<metadata>
Created by potrace 1.16, written by Peter Selinger 2001-2019
</metadata>
<g transform="translate(0.000000,1421.000000) scale(0.100000,-0.100000)"
fill="#000000" stroke="none">
<path d="M0 14100 l0 -110 173 0 c245 0 281 13 382 140 30 38 55 71 55 74 0 4
-137 6 -305 6 l-305 0 0 -110z"/>
<path d="M715 14133 c-144 -223 -321 -432 -401 -473 -33 -17 -70 -48 -63 -54
2 -2 87 -24 189 -50 102 -25 194 -48 205 -52 12 -3 28 2 40 13 45 39 104 83
114 83 27 0 15 -20 -35 -59 -30 -23 -54 -46 -54 -52 0 -30 89 14 132 65 13 16
20 18 28 10 13 -13 -3 -34 -49 -66 -13 -9 -20 -21 -16 -27 9 -15 42 -14 48 2
2 6 8 9 12 5 11 -10 -5 -148 -17 -148 -10 0 -100 -71 -128 -101 -8 -9 -48 -43
-89 -75 -41 -33 -86 -69 -100 -80 l-25 -21 22 -8 c23 -7 69 23 158 102 17 16
55 48 84 73 29 25 59 51 66 58 16 16 24 15 24 -1 0 -20 -25 -46 -120 -123
-149 -120 -156 -128 -125 -140 9 -4 32 9 58 32 53 48 115 102 150 131 39 33
43 2 4 -36 -52 -49 -151 -131 -159 -131 -4 0 -5 -7 -2 -15 11 -27 34 -16 105
47 38 33 72 58 75 55 13 -12 -10 -44 -58 -82 -56 -43 -66 -60 -45 -68 15 -6
77 44 77 62 0 6 5 11 10 11 22 0 9 -49 -20 -73 -24 -21 -27 -27 -16 -37 10 -7
16 -8 21 0 14 22 21 7 22 -50 2 -51 -2 -64 -22 -86 -14 -15 -25 -31 -25 -35 0
-5 -6 -9 -12 -9 -7 0 -35 -20 -63 -44 -43 -38 -47 -46 -32 -52 13 -5 29 3 55
27 20 19 38 37 40 42 6 13 33 37 41 37 4 0 8 -28 8 -61 1 -67 5 -60 -95 -151
-38 -35 -60 -73 -49 -85 3 -2 35 26 71 64 59 60 66 65 66 43 0 -18 -19 -42
-65 -85 -36 -33 -88 -81 -115 -107 -28 -27 -55 -48 -61 -48 -7 0 -20 10 -30
21 -19 22 -49 20 -49 -4 0 -7 -10 -22 -22 -33 -38 -32 -172 -145 -193 -163
-11 -9 -52 -43 -91 -76 -111 -95 -166 -139 -180 -148 -8 -4 -14 -22 -14 -38
l0 -31 39 29 c21 15 69 56 107 90 38 34 105 92 149 129 44 37 115 100 159 140
76 72 118 96 97 56 -9 -17 -128 -125 -311 -282 -47 -40 -86 -76 -88 -81 -2 -5
-8 -9 -13 -9 -6 0 -24 -14 -42 -30 -18 -17 -47 -40 -64 -53 -24 -16 -33 -30
-33 -49 0 -16 2 -28 4 -28 6 0 117 91 176 144 25 23 72 64 105 91 32 28 78 68
101 90 23 22 74 69 115 105 40 36 127 118 192 183 66 64 122 117 124 117 2 0
3 -8 3 -18 0 -17 -140 -160 -270 -276 -30 -27 -98 -88 -150 -136 -52 -49 -129
-116 -170 -151 -79 -65 -195 -165 -218 -186 -7 -7 -12 -25 -10 -39 l3 -26 26
23 c14 13 54 49 89 79 187 162 354 314 435 398 12 12 27 22 34 22 6 0 12 6 12
13 1 6 51 59 111 117 l108 104 -3 -66 c-2 -40 -10 -76 -20 -92 -21 -31 -23
-57 -2 -30 14 18 14 18 15 -9 0 -19 -11 -38 -33 -60 -39 -38 -70 -84 -59 -90
4 -2 23 15 42 39 19 23 38 43 43 43 4 1 7 -25 7 -56 0 -40 -6 -68 -20 -91 -22
-36 -26 -52 -8 -34 17 17 28 15 28 -4 0 -8 -24 -41 -53 -72 -56 -60 -93 -112
-79 -112 4 0 29 25 56 55 26 30 52 55 58 55 36 0 -39 -90 -297 -353 -65 -66
-326 -315 -420 -400 l-40 -36 27 -1 c23 0 67 39 246 218 119 119 277 279 351
355 73 76 135 136 138 134 3 -3 2 -14 -1 -24 -7 -23 -272 -297 -555 -577 -61
-60 -111 -113 -111 -118 0 -28 48 12 207 175 160 162 369 379 431 446 l22 25
0 -26 c0 -27 -125 -162 -483 -521 -65 -65 -116 -121 -114 -124 15 -14 56 20
183 154 76 81 178 188 226 238 47 49 108 114 136 143 31 33 53 49 57 42 9 -14
-10 -41 -82 -116 -170 -179 -411 -430 -432 -449 -17 -17 -20 -24 -10 -30 8 -6
38 19 92 76 138 147 320 340 375 397 l52 55 0 -68 c0 -61 -6 -82 -55 -194 -95
-216 -143 -301 -185 -331 -32 -23 -88 -26 -154 -9 -42 10 -43 10 -80 -27 -27
-27 -36 -44 -34 -62 3 -22 11 -28 58 -39 30 -8 65 -17 78 -20 25 -6 30 -23 6
-23 -9 0 -48 8 -86 17 -68 16 -71 16 -84 -2 -24 -33 -16 -41 61 -60 41 -10 75
-22 75 -27 0 -4 14 -8 30 -8 17 0 38 -4 48 -10 33 -18 118 -32 217 -35 91 -3
189 -21 240 -45 11 -5 27 -9 35 -8 54 7 207 -43 195 -63 -4 -6 -14 -7 -24 -4
-9 4 -54 17 -101 30 -267 72 -339 85 -390 71 -28 -7 -46 -7 -62 1 -22 11 -129
38 -248 63 -30 7 -63 16 -72 21 -10 5 -19 9 -21 9 -1 0 -29 -31 -62 -70 -33
-38 -63 -70 -68 -70 -10 0 -81 52 -85 63 -8 18 -18 4 -19 -26 -1 -30 3 -34 41
-46 39 -13 95 -26 164 -38 17 -3 32 -10 32 -15 0 -6 9 -8 19 -5 12 3 22 -1 25
-10 4 -10 13 -12 27 -8 12 4 31 2 43 -3 11 -6 39 -16 61 -22 22 -6 56 -16 75
-22 19 -6 60 -14 90 -18 l55 -7 -50 -1 c-27 -1 -68 3 -90 9 -43 11 -117 28
-150 34 -32 6 -133 31 -215 53 -41 11 -87 23 -102 26 l-28 6 0 -88 0 -88 48
-13 c26 -7 55 -15 64 -18 50 -13 -15 -48 -71 -39 l-41 6 0 -663 0 -663 49 -38
c57 -43 157 -94 251 -128 57 -20 83 -23 210 -23 85 0 158 5 176 12 28 10 36 8
70 -15 22 -14 55 -38 74 -54 19 -16 40 -32 45 -36 39 -28 91 -67 95 -72 3 -3
21 -18 40 -34 195 -159 644 -612 758 -765 15 -20 29 -38 32 -41 9 -9 156 -194
163 -206 4 -7 -22 2 -58 20 -36 17 -68 38 -70 48 -3 9 -13 19 -23 23 -68 28
-689 233 -917 303 -161 50 -194 56 -201 38 -7 -19 1 -34 112 -201 84 -127 139
-208 258 -379 23 -32 48 -68 56 -80 8 -11 38 -53 67 -93 56 -77 66 -83 213
-118 55 -14 149 -38 205 -55 17 -4 82 -22 145 -38 63 -17 142 -38 175 -47 217
-58 339 -85 346 -78 15 15 -32 128 -89 214 -73 111 -75 117 -59 156 l14 37 48
-74 c55 -85 145 -233 183 -300 32 -58 105 -168 131 -200 11 -14 21 -28 21 -32
0 -11 -41 -10 -76 1 -16 5 -63 16 -104 25 -41 9 -122 28 -180 41 -58 13 -121
27 -140 30 -19 4 -48 11 -65 15 -16 5 -59 16 -95 24 -157 36 -288 67 -320 76
-19 6 -53 14 -75 19 -39 9 -125 33 -175 48 -45 14 -56 26 -170 188 -62 88
-138 196 -170 240 -31 44 -76 109 -100 145 -24 36 -60 88 -80 115 -20 28 -110
154 -200 280 -201 282 -228 318 -359 475 -177 211 -211 247 -211 218 0 -7 26
-43 58 -79 31 -36 75 -87 97 -114 22 -27 45 -53 50 -59 8 -9 53 -64 108 -131
15 -19 142 -192 155 -211 6 -10 44 -64 84 -119 125 -175 176 -247 250 -355 40
-58 76 -109 80 -115 4 -5 18 -23 31 -40 13 -16 63 -88 112 -160 48 -71 90
-132 94 -135 3 -3 19 -25 35 -50 16 -25 35 -49 43 -53 7 -4 13 -14 13 -22 0
-22 143 -63 560 -161 36 -8 81 -19 100 -24 60 -15 162 -39 240 -55 41 -9 91
-20 110 -25 19 -5 98 -24 175 -41 77 -18 141 -33 143 -34 2 -2 -11 -32 -28
-69 -16 -37 -30 -70 -30 -74 0 -4 -7 -15 -14 -24 -14 -19 -3 -20 -176 16 -41
9 -131 27 -200 42 -69 14 -143 30 -165 34 -90 20 -487 102 -577 120 -144 29
-191 41 -208 55 -8 7 -25 16 -37 19 -13 4 -29 13 -35 20 -7 6 -62 38 -123 71
-60 32 -132 72 -160 90 -27 17 -63 38 -80 46 -42 22 -168 91 -180 99 -9 7 -99
56 -175 96 -19 11 -37 21 -40 24 -8 8 -40 26 -100 58 -30 16 -88 47 -129 70
-41 23 -75 42 -77 42 -2 0 -4 -10 -4 -22 0 -24 19 -37 180 -124 41 -22 94 -52
117 -67 24 -15 47 -27 52 -27 5 0 16 -6 23 -13 7 -7 42 -28 78 -46 77 -41 107
-57 178 -100 29 -17 57 -31 62 -31 6 0 10 -4 10 -10 0 -5 5 -10 11 -10 7 0 79
-38 160 -85 82 -47 151 -85 154 -85 2 0 26 -13 52 -29 34 -21 86 -37 178 -56
127 -26 307 -63 530 -110 61 -13 231 -48 379 -79 148 -31 271 -58 273 -60 5
-4 -113 -266 -125 -278 -5 -5 -64 3 -133 17 -68 14 -158 32 -199 40 -41 8
-183 37 -315 64 -132 28 -326 68 -431 90 -248 51 -255 53 -327 99 -34 22 -111
68 -172 102 -60 34 -138 80 -172 101 -34 22 -64 39 -66 39 -4 0 -156 86 -177
100 -32 22 -201 120 -207 120 -3 0 -28 14 -55 31 -28 16 -52 28 -54 26 -2 -2
-3 -486 -2 -1076 l3 -1072 95 87 c52 47 99 96 104 109 7 18 5 35 -9 65 -24 53
-25 87 -4 106 13 12 22 13 37 5 101 -54 171 -40 245 51 34 43 60 166 46 226
-10 42 -4 72 15 72 7 0 30 8 52 19 80 38 202 91 209 91 3 0 48 19 98 41 134
61 176 79 181 79 3 0 37 15 78 34 40 18 101 45 135 60 35 14 86 37 115 50 192
87 266 116 300 116 20 0 40 -5 43 -10 10 -16 -20 -39 -42 -34 -13 4 -22 0 -26
-9 -3 -8 -21 -18 -39 -22 -18 -4 -53 -18 -78 -30 -25 -13 -141 -64 -259 -114
-117 -51 -275 -121 -350 -155 -229 -107 -272 -126 -282 -126 -5 0 -27 -8 -49
-17 l-40 -18 1 -55 c1 -45 -10 -121 -24 -175 -1 -6 -13 -27 -25 -47 -57 -92
-152 -135 -249 -113 l-31 7 10 -46 c8 -40 7 -53 -12 -90 -13 -29 -31 -48 -51
-56 -16 -7 -34 -21 -39 -30 -8 -15 -6 -17 13 -12 17 4 10 -8 -30 -49 -29 -30
-60 -64 -68 -76 -8 -12 -29 -24 -45 -28 -29 -6 -30 -8 -30 -66 0 -32 4 -59 8
-59 5 0 32 7 61 16 29 8 55 13 57 11 5 -5 -13 -27 -83 -104 -41 -45 -54 -73
-33 -73 5 0 20 15 32 33 21 30 60 80 110 139 14 16 135 57 171 58 9 0 -39 -63
-125 -167 -31 -37 -82 -99 -112 -138 -30 -38 -62 -78 -71 -88 -16 -18 -21 -47
-7 -47 4 1 20 19 37 41 17 22 35 45 40 52 6 6 43 55 82 108 40 52 95 120 123
150 28 30 64 69 81 87 16 17 33 32 37 32 24 -1 57 -53 46 -73 -15 -23 -191
-246 -204 -257 -3 -3 -17 -21 -30 -40 -13 -19 -27 -37 -31 -40 -4 -3 -38 -50
-77 -105 -39 -55 -80 -112 -91 -127 -12 -14 -21 -39 -21 -54 0 -27 2 -26 32
20 140 206 340 471 404 535 19 19 34 38 34 43 0 20 17 4 40 -36 17 -32 21 -48
14 -58 -6 -7 -53 -67 -105 -133 -80 -101 -202 -267 -239 -325 -81 -126 -106
-155 -143 -163 l-37 -9 0 -307 1 -306 57 -39 c34 -24 49 -31 38 -18 -28 33
-10 40 22 9 32 -31 42 -34 42 -12 0 8 -4 15 -9 15 -5 0 -19 13 -30 29 -20 28
-20 29 -2 66 13 28 19 33 24 21 4 -9 11 -16 17 -16 18 0 11 26 -20 68 -34 47
-35 52 -17 52 14 0 46 -30 78 -73 12 -16 27 -26 35 -23 8 3 11 0 7 -10 -10
-28 22 -4 45 34 13 20 35 52 50 70 26 30 29 32 65 21 21 -5 43 -19 50 -30 6
-10 22 -19 34 -19 30 0 103 -30 103 -42 0 -5 -10 -6 -23 -3 l-22 7 22 -21 c26
-24 53 -28 53 -6 0 19 2 19 55 -7 26 -14 43 -29 42 -38 -2 -12 7 -14 38 -13
50 3 97 -32 88 -66 -3 -12 -12 -21 -19 -21 -16 0 -19 -17 -3 -22 6 -2 3 -21
-10 -51 -22 -51 -40 -54 -60 -11 -9 22 -8 28 15 51 33 33 23 42 -13 12 -33
-28 -33 -71 -1 -106 l21 -22 -27 -54 c-14 -30 -26 -61 -26 -69 0 -15 -28 -27
-78 -33 -13 -2 -32 -11 -42 -20 -15 -14 -22 -14 -40 -5 -18 9 -24 9 -30 0 -5
-9 -9 -9 -14 -1 -13 21 -27 11 -15 -10 10 -20 9 -21 -10 -16 -11 3 -21 2 -21
-2 0 -11 -43 -29 -57 -24 -7 3 -13 13 -13 24 0 12 5 16 15 13 20 -8 31 22 15
41 -16 20 -5 32 14 16 11 -9 16 -9 21 0 4 6 2 15 -5 19 -15 9 -6 73 14 102 11
15 15 15 38 4 15 -8 31 -10 39 -5 10 6 7 10 -12 17 -47 18 -52 34 -23 88 14
27 32 54 40 60 7 6 11 13 8 17 -3 3 1 18 9 34 15 30 13 53 -7 53 -11 0 -32
-36 -61 -105 -6 -16 -22 -51 -34 -76 -11 -25 -21 -51 -21 -57 0 -15 -34 -72
-43 -72 -4 0 -25 16 -47 36 l-39 36 29 57 c107 211 124 261 91 261 -11 0 -115
-209 -126 -253 -4 -15 -11 -29 -15 -32 -13 -8 -72 56 -66 71 4 9 2 12 -5 8 -8
-4 -9 1 -4 17 13 41 -20 5 -71 -77 -26 -41 -52 -78 -58 -82 -7 -4 -26 -31 -44
-60 -51 -84 -43 -176 19 -217 16 -11 27 -24 26 -30 -7 -21 -40 -16 -68 11
l-29 28 0 -63 c0 -47 3 -62 13 -58 11 4 432 130 592 177 33 10 121 37 195 59
74 23 178 55 230 71 196 59 857 261 900 274 25 8 92 28 150 46 58 18 152 47
210 65 58 18 173 54 255 79 83 25 217 66 298 91 82 25 159 45 171 45 15 0 46
-29 107 -102 80 -96 346 -425 414 -512 17 -22 84 -107 151 -190 66 -83 192
-241 279 -351 135 -170 237 -294 293 -353 15 -16 52 -87 52 -99 0 -4 -19 -16
-42 -26 -41 -17 -42 -17 -64 4 -20 19 -31 21 -96 15 -40 -3 -90 -8 -110 -12
-24 -4 -38 -2 -38 4 0 10 37 26 123 54 22 7 38 18 37 23 -3 19 -1002 1260
-1017 1263 -8 2 -34 -3 -57 -11 -53 -18 -55 -19 -431 -132 -176 -53 -331 -100
-345 -105 -14 -5 -59 -18 -100 -30 -41 -12 -100 -30 -130 -39 -30 -10 -80 -25
-110 -34 -245 -74 -488 -149 -500 -156 -9 -5 -31 -12 -50 -15 -19 -4 -53 -14
-75 -21 -22 -7 -78 -25 -125 -39 -47 -14 -146 -44 -220 -67 -133 -40 -183 -56
-278 -83 -121 -35 -258 -78 -272 -85 -9 -5 -31 -12 -50 -15 -19 -4 -44 -11
-55 -15 -51 -20 -125 -41 -144 -41 -11 0 -21 -4 -21 -9 0 -5 -19 -11 -42 -15
-23 -4 -47 -11 -53 -15 -5 -5 -19 -11 -30 -15 -11 -3 0 -3 25 0 24 3 49 8 55
12 14 11 74 30 118 38 20 3 37 10 37 15 0 5 10 9 23 9 12 0 65 14 117 30 119
38 138 38 77 0 l-48 -31 6 -57 c3 -31 2 -63 -3 -70 -10 -15 -123 -50 -335
-104 l-87 -22 0 -334 0 -334 23 7 c65 21 76 19 115 -22 20 -22 44 -49 52 -61
26 -38 59 -85 118 -167 86 -120 104 -152 100 -182 -3 -25 -12 -29 -205 -92
l-203 -66 0 -107 c0 -60 1 -108 3 -108 1 0 36 11 77 24 41 13 163 52 270 86
304 96 533 171 555 180 11 5 54 18 95 30 41 12 84 25 95 30 43 18 281 90 298
90 9 0 17 5 17 10 0 6 8 10 18 10 15 0 81 19 137 40 11 4 67 22 125 40 58 17
137 42 175 55 39 12 93 29 120 38 28 8 142 44 255 80 113 36 286 91 385 122
99 31 225 72 280 90 55 17 181 58 280 89 99 32 288 93 420 135 132 43 246 76
253 73 9 -3 12 -21 10 -60 l-3 -55 -330 -108 c-181 -60 -384 -126 -450 -148
-151 -50 -1342 -439 -1460 -477 -27 -8 -59 -19 -70 -24 -11 -4 -101 -33 -200
-65 -99 -31 -189 -61 -200 -65 -11 -5 -135 -46 -275 -91 -495 -159 -865 -282
-874 -290 -23 -21 8 -15 114 20 63 21 277 91 475 156 198 64 367 120 375 125
9 4 31 11 50 15 19 4 41 11 50 15 8 4 42 16 75 26 33 10 67 21 75 26 8 4 53
19 100 33 116 35 820 265 845 275 11 5 49 18 85 29 60 19 382 124 650 211 63
21 264 86 445 145 182 59 339 110 350 115 36 15 151 50 163 50 6 0 12 -23 14
-57 l3 -58 103 -82 c57 -46 108 -83 114 -83 5 0 7 12 4 27 -3 16 -8 78 -11
139 l-7 110 104 12 c56 7 128 12 160 12 l56 0 7 -87 c4 -49 7 -113 8 -143 l2
-55 -70 -5 -70 -5 -7 -45 c-12 -74 -29 -117 -52 -128 -11 -6 -79 -29 -151 -52
-71 -23 -231 -74 -355 -115 -124 -40 -268 -86 -320 -103 -52 -17 -234 -75
-405 -130 -390 -126 -851 -274 -975 -314 -52 -16 -126 -40 -165 -53 -38 -13
-185 -60 -325 -105 -140 -45 -286 -92 -325 -105 -38 -13 -144 -46 -235 -75
-91 -29 -217 -69 -280 -90 -63 -21 -209 -68 -325 -105 -116 -36 -236 -75 -268
-86 -31 -10 -64 -19 -72 -19 -8 0 -15 -9 -15 -20 0 -20 7 -20 393 -20 368 0
395 1 445 20 65 25 79 25 87 0 9 -28 35 -26 28 1 -4 15 0 27 12 35 30 22 38
17 31 -21 l-7 -35 68 0 69 0 17 59 c20 66 28 76 73 85 31 7 31 6 38 -40 3 -26
6 -60 6 -75 0 -16 5 -29 11 -29 9 0 10 21 6 73 -7 81 -3 93 33 98 22 4 25 1
23 -25 -1 -16 -5 -37 -9 -45 -4 -9 -13 -35 -19 -58 l-12 -43 38 0 c34 0 38 3
44 32 4 18 9 40 11 49 3 11 -3 19 -17 22 -19 5 -21 11 -15 39 6 32 32 62 46
53 4 -3 11 -48 15 -100 l7 -95 98 0 99 0 -1 78 c0 50 6 96 18 132 16 47 24 56
52 64 18 5 34 7 36 5 3 -2 6 -45 7 -94 1 -50 7 -95 12 -102 5 -7 6 -17 3 -22
-11 -17 5 -61 23 -61 14 0 15 10 9 87 -3 49 -7 116 -7 151 -1 59 0 63 26 72
16 6 35 15 43 20 30 20 42 23 50 10 11 -18 21 -112 12 -124 -4 -6 -4 -57 1
-114 8 -92 11 -102 29 -102 18 0 19 5 12 92 -4 51 -10 102 -13 113 -4 11 -5
45 -3 76 l4 57 44 7 c42 6 62 25 27 25 -14 0 -13 3 6 17 29 20 56 7 56 -28 0
-13 4 -29 8 -35 7 -13 -19 -29 -42 -25 -7 1 -11 -4 -9 -11 3 -7 10 -14 16 -14
23 -3 24 -4 13 -17 -8 -10 -7 -17 1 -25 6 -6 12 -28 13 -49 0 -21 2 -71 3
-110 2 -67 4 -73 23 -73 21 0 22 2 15 103 -4 56 -8 111 -9 122 -1 11 3 19 11
18 6 -2 12 1 12 7 0 5 16 16 35 24 20 9 35 22 35 31 0 15 -4 14 -34 -4 -43
-27 -66 -28 -43 -3 10 10 17 25 17 33 0 23 29 59 44 53 25 -10 66 14 66 40 0
15 7 25 19 29 26 6 17 -27 -20 -75 -32 -40 -35 -48 -18 -48 16 0 70 67 75 93
1 4 3 10 4 15 1 4 2 10 2 13 -2 11 40 27 228 89 239 79 294 94 298 80 4 -11
23 -14 21 -2 -4 23 4 32 26 32 22 0 25 -4 25 -34 0 -19 -4 -37 -9 -40 -4 -3
-12 -27 -15 -53 -4 -27 -9 -55 -12 -63 -34 -127 -94 -407 -94 -439 0 -45 19
-17 34 49 42 189 106 524 106 559 0 20 7 31 24 39 13 6 26 9 28 6 3 -2 1 -25
-3 -52 -5 -26 -18 -114 -29 -197 -17 -124 -47 -282 -77 -402 l-5 -23 811 0
811 0 0 23 c0 35 -20 53 -80 72 -72 23 -90 39 -60 55 27 14 137 4 164 -16 12
-8 24 -36 31 -71 l12 -58 60 -3 60 -3 26 40 c37 56 35 97 -7 144 -57 64 -52
152 11 207 49 43 88 41 146 -10 111 -98 132 -247 51 -358 l-16 -22 531 0 c292
0 531 2 531 4 0 3 -39 28 -87 56 -49 28 -126 75 -173 104 -76 47 -188 116
-435 268 -336 206 -327 200 -357 258 -15 30 -27 61 -28 68 0 7 -12 29 -26 48
-25 32 -25 34 -6 34 25 0 66 -48 100 -117 24 -49 35 -58 159 -135 74 -46 146
-90 161 -99 15 -9 77 -47 137 -84 61 -38 135 -83 165 -102 30 -19 84 -52 120
-75 36 -22 121 -74 190 -115 69 -41 137 -83 152 -94 25 -17 47 -19 225 -19
189 0 199 1 211 20 7 12 21 24 31 28 10 4 43 35 74 68 52 56 56 64 48 90 -5
16 -17 56 -26 89 -37 132 -89 290 -97 293 -4 2 -8 14 -8 27 0 13 -4 35 -10 49
-10 29 0 35 20 11 7 -8 23 -15 36 -15 13 0 24 -5 24 -11 0 -16 51 -2 76 22 25
23 49 92 34 97 -6 2 -1 17 11 34 16 22 22 45 22 91 2 118 -22 190 -75 231 -66
50 -137 26 -172 -58 -16 -38 -23 -39 -83 -20 -19 5 -17 115 2 140 8 10 15 24
15 30 0 6 25 38 55 70 31 33 58 69 61 82 4 12 11 22 18 22 6 0 41 35 76 77 98
117 119 136 133 126 6 -5 44 -18 82 -28 39 -10 102 -28 140 -41 39 -12 89 -27
112 -33 46 -13 56 -27 88 -128 9 -29 19 -53 23 -53 4 0 32 26 64 57 32 31 61
53 65 49 4 -4 -20 -35 -55 -68 -34 -33 -62 -66 -62 -73 0 -7 12 -44 26 -81 33
-86 74 -223 74 -247 0 -10 -15 -33 -33 -50 -33 -31 -84 -143 -72 -155 3 -4 76
64 162 150 l157 157 -28 93 c-16 51 -32 102 -36 113 -21 52 -39 119 -34 124
10 11 39 -17 45 -45 24 -98 76 -244 86 -242 7 2 57 47 112 101 60 58 108 97
121 97 11 0 20 -3 20 -7 0 -4 -55 -63 -122 -130 l-122 -122 62 -189 c60 -182
71 -232 54 -232 -5 0 -14 10 -20 23 -18 34 -112 320 -112 340 0 11 -6 17 -15
15 -8 -2 -89 -76 -180 -165 -185 -182 -182 -177 -145 -283 11 -30 19 -64 20
-75 0 -14 -45 -62 -136 -145 -155 -142 -165 -151 -225 -202 -24 -20 -57 -48
-74 -62 -41 -36 -71 -43 -95 -21 -11 10 -20 24 -20 31 0 7 -5 25 -10 40 l-11
28 -59 -59 c-33 -33 -60 -63 -60 -67 0 -4 340 -8 755 -8 l755 0 0 803 0 803
-273 67 c-149 37 -405 102 -567 143 -162 42 -311 79 -330 84 -19 4 -136 33
-260 63 -124 31 -236 59 -250 61 -23 5 -90 52 -148 105 -44 41 -55 42 -177 27
l-115 -14 -132 33 c-73 18 -196 50 -273 70 -169 44 -627 161 -710 182 -96 23
-118 28 -365 92 -304 79 -340 90 -340 100 0 5 -31 49 -70 98 -38 48 -70 91
-70 94 0 6 53 -7 330 -76 131 -32 582 -148 770 -197 85 -22 173 -44 195 -48
22 -5 67 -16 100 -25 33 -9 76 -21 95 -25 19 -4 73 -18 120 -30 47 -13 101
-26 120 -31 33 -7 265 -66 785 -199 502 -128 912 -232 975 -246 35 -8 88 -21
118 -29 29 -9 71 -20 95 -24 23 -5 114 -28 202 -50 87 -23 163 -41 167 -41 18
0 6 28 -14 34 -13 3 -176 45 -363 92 -187 47 -349 89 -360 94 -11 5 -42 14
-70 20 -27 6 -77 17 -110 25 -33 7 -105 26 -160 40 -55 15 -120 31 -144 36
-24 5 -73 17 -110 28 -36 11 -86 24 -111 29 -25 6 -74 18 -110 27 -36 10 -81
21 -100 25 -19 5 -152 38 -295 75 -143 37 -285 73 -315 80 -30 7 -127 32 -215
55 -88 24 -178 46 -200 51 -22 4 -83 20 -135 34 -52 14 -149 39 -215 55 -130
31 -302 75 -430 110 -44 11 -134 34 -200 50 -223 54 -435 109 -449 117 -18 10
-146 169 -146 181 0 10 142 -21 345 -75 72 -20 145 -35 163 -35 17 0 32 -3 32
-8 0 -14 84 -23 353 -39 10 -1 15 -5 12 -11 -4 -6 7 -10 24 -10 17 0 31 -5 31
-11 0 -6 12 -10 28 -8 15 1 34 -1 42 -4 42 -16 149 -40 177 -40 18 0 30 -4 28
-8 -5 -7 36 -17 90 -23 17 -2 50 -10 75 -18 25 -9 68 -19 95 -23 28 -4 55 -11
60 -15 6 -4 24 -10 40 -13 17 -3 57 -13 90 -22 77 -20 144 -36 170 -39 28 -3
76 -16 100 -26 11 -4 58 -16 105 -25 47 -9 90 -20 95 -24 6 -4 21 -8 34 -9 21
-1 257 -57 291 -69 8 -3 24 -7 35 -8 47 -7 151 -32 162 -38 6 -4 53 -16 105
-28 51 -11 109 -24 128 -29 19 -5 85 -21 145 -35 167 -39 515 -124 555 -135
19 -6 94 -23 165 -40 72 -17 146 -35 165 -40 65 -19 287 -70 304 -70 9 0 16 8
16 18 0 14 -17 21 -82 36 -46 10 -171 40 -278 66 -107 27 -229 56 -270 65 -41
9 -85 21 -98 26 -13 5 -31 9 -41 9 -10 0 -43 7 -72 16 -70 20 -98 27 -259 64
-74 17 -143 36 -152 41 -10 5 -29 9 -42 9 -13 0 -48 7 -77 16 -86 25 -106 30
-254 64 -77 18 -149 36 -160 40 -11 4 -56 15 -100 25 -44 9 -105 24 -135 32
-30 8 -71 19 -90 24 -19 5 -201 50 -405 100 -203 50 -392 97 -420 105 -90 25
-544 134 -560 134 -8 0 -15 4 -15 10 0 5 25 62 55 126 l55 116 43 -7 c45 -6
133 -25 262 -55 44 -10 170 -40 280 -65 262 -61 384 -90 530 -125 66 -16 152
-36 190 -44 39 -9 95 -23 125 -31 50 -12 178 -42 390 -90 114 -26 824 -206
950 -241 30 -8 73 -19 95 -23 53 -11 442 -109 481 -121 49 -16 54 -13 54 33
l0 43 -112 28 c-62 16 -140 35 -173 42 -33 7 -222 54 -420 104 -198 50 -387
98 -420 105 -106 24 -549 134 -580 144 -16 5 -106 28 -200 50 -93 23 -192 47
-220 55 -27 8 -99 26 -160 40 -60 14 -135 33 -165 41 -130 35 -1027 255 -1040
255 -9 0 -26 -25 -39 -58 -14 -31 -42 -94 -63 -140 -21 -46 -38 -87 -38 -93 0
-12 -17 -11 -60 1 -19 6 -53 15 -75 20 -44 9 -290 73 -450 116 -55 14 -124 31
-153 37 -43 9 -62 20 -110 66 -31 31 -79 72 -105 91 -27 19 -44 36 -38 38 6 2
84 -15 173 -36 90 -22 174 -43 188 -45 34 -7 303 -75 365 -92 149 -41 153 -41
203 -15 39 21 52 36 79 90 47 96 99 212 108 240 4 14 21 54 37 90 17 36 38 85
48 110 10 25 29 70 43 100 14 30 54 120 87 200 34 80 71 165 81 190 11 25 24
54 29 65 4 11 15 36 23 55 8 19 43 100 77 180 34 80 68 159 75 175 8 17 26 59
40 95 15 36 35 83 45 105 138 305 140 343 29 377 -115 35 -159 42 -171 30 -14
-14 9 -24 106 -46 86 -20 116 -38 116 -72 0 -20 -77 -210 -164 -404 -8 -19
-56 -132 -107 -250 -50 -118 -104 -243 -120 -278 -16 -35 -29 -66 -29 -69 0
-6 -104 -247 -145 -338 -14 -29 -25 -56 -25 -59 0 -3 -11 -29 -24 -58 -13 -29
-56 -129 -96 -223 -115 -269 -125 -285 -192 -285 -37 0 -210 38 -368 80 -80
21 -302 77 -461 115 -192 45 -220 58 -300 140 -40 41 -81 77 -91 81 -18 5
-104 -12 -203 -41 -55 -17 -75 -14 -230 28 -49 14 -135 37 -190 51 -182 49
-208 58 -233 83 -32 32 -26 71 32 194 24 52 64 141 89 199 25 58 61 139 80
180 19 41 51 113 72 160 20 47 56 128 80 180 23 52 57 129 74 170 18 41 48
108 67 148 19 40 34 75 34 78 0 3 9 26 21 51 12 25 54 123 94 217 98 232 148
334 183 376 l29 34 64 -13 c84 -17 138 -28 172 -37 21 -5 27 -3 27 10 0 9 -12
18 -27 22 -16 4 -52 12 -81 20 -29 7 -78 16 -110 20 -53 6 -59 4 -85 -22 -40
-40 -93 -147 -223 -449 -64 -148 -127 -295 -141 -325 -14 -30 -45 -102 -70
-160 -25 -58 -55 -127 -68 -155 -13 -27 -32 -70 -43 -95 -59 -133 -109 -244
-143 -318 -22 -46 -39 -86 -39 -88 0 -5 -79 -184 -113 -254 -27 -57 -29 -140
-3 -168 21 -24 60 -37 286 -96 96 -25 189 -50 206 -56 17 -5 39 -10 49 -10 40
0 -4 -20 -109 -50 -112 -33 -139 -33 -236 1 -14 5 -45 13 -70 18 -25 5 -103
24 -175 43 -149 40 -145 35 -99 136 14 31 42 95 61 142 20 47 48 112 63 145
15 33 56 128 90 210 34 83 73 173 86 202 13 28 24 54 24 57 0 4 9 25 19 49 11
23 33 73 50 110 17 38 31 72 31 77 0 5 11 30 25 56 14 26 25 51 25 55 0 5 12
34 26 66 26 58 42 95 62 143 6 14 25 56 41 93 17 38 31 73 31 78 0 5 4 17 10
27 12 22 57 125 80 183 10 26 28 66 39 90 11 24 54 125 96 224 42 99 81 184
86 189 5 6 17 5 31 -2 13 -6 46 -16 73 -21 28 -5 79 -17 115 -26 119 -30 135
-33 195 -45 33 -7 69 -16 80 -20 11 -4 52 -15 90 -25 39 -9 86 -20 105 -26 19
-5 58 -14 85 -20 28 -5 66 -14 85 -19 19 -5 60 -16 90 -23 30 -7 62 -16 70
-20 8 -3 29 -8 45 -10 36 -6 137 -30 220 -52 33 -9 74 -19 90 -21 17 -3 37 -8
45 -12 8 -3 40 -11 70 -18 88 -19 232 -54 270 -65 34 -9 425 -103 565 -136 39
-9 76 -17 83 -19 20 -5 14 -39 -19 -111 -33 -71 -48 -105 -72 -163 -14 -31
-45 -102 -82 -185 -53 -120 -70 -156 -91 -202 -13 -28 -24 -58 -24 -66 0 -17
-5 -15 190 -62 80 -19 172 -42 205 -51 33 -9 76 -20 95 -25 62 -16 324 -81
360 -89 19 -5 44 -11 55 -14 11 -3 79 -19 150 -37 72 -17 144 -35 160 -40 63
-20 403 -99 423 -99 12 0 22 6 22 13 0 6 18 39 40 72 22 33 36 62 32 66 -4 4
-36 14 -72 22 -36 8 -101 25 -145 37 -44 13 -96 26 -115 30 -19 4 -89 22 -155
40 -66 17 -178 47 -250 65 -71 18 -209 54 -305 79 -96 26 -193 50 -215 55 -22
5 -76 19 -120 31 -44 12 -93 25 -110 29 -36 8 -42 31 -21 76 9 18 16 36 16 40
0 6 19 49 75 170 12 28 32 75 44 105 12 30 26 64 31 75 5 11 21 47 36 80 14
33 30 70 35 83 12 30 27 29 235 -22 98 -24 240 -58 314 -75 294 -70 560 -135
663 -162 59 -16 110 -29 112 -29 3 0 5 -4 5 -10 0 -5 -7 -10 -16 -10 -8 0 -12
-4 -9 -10 3 -5 13 -10 22 -10 9 0 26 -9 37 -19 12 -11 42 -31 69 -44 26 -14
66 -40 88 -58 37 -29 44 -31 70 -22 17 7 31 7 35 2 3 -5 10 -9 16 -9 6 0 3 9
-7 20 -10 11 -24 20 -32 20 -7 0 -13 5 -13 10 0 6 -6 10 -13 10 -7 0 -21 9
-31 21 -12 14 -25 20 -42 16 -18 -3 -24 0 -22 12 2 11 -4 16 -19 15 -12 0 -20
3 -17 8 3 4 -3 8 -13 8 -10 0 -35 6 -57 14 -35 12 -36 14 -15 19 13 4 28 2 33
-3 6 -6 22 -10 37 -10 28 0 194 -39 699 -164 167 -42 312 -76 322 -76 15 0 18
9 18 51 l0 51 -45 -6 c-47 -8 -89 0 -80 13 2 5 32 11 65 15 l60 7 -2 281 -3
281 -45 14 c-70 22 -302 103 -335 117 -49 21 -138 54 -165 61 -41 11 -254 86
-272 96 -10 5 -23 9 -30 9 -7 0 -24 6 -38 13 -36 19 -159 64 -195 72 -27 5
-104 32 -160 56 -11 5 -38 15 -60 22 -136 48 -324 117 -347 128 -36 16 -36 37
-1 45 19 5 51 -1 103 -21 41 -15 156 -56 255 -90 99 -35 214 -75 255 -90 41
-14 93 -32 115 -40 22 -7 69 -25 104 -39 35 -15 116 -45 180 -66 151 -50 273
-93 339 -119 29 -12 56 -21 60 -21 5 0 6 15 4 34 -5 39 20 71 63 82 36 9 41
-1 22 -42 -10 -19 -15 -39 -12 -43 2 -5 24 -11 49 -13 24 -3 58 -15 74 -27 17
-11 33 -21 36 -21 4 0 5 63 4 141 l-3 141 -95 40 c-96 40 -321 118 -340 118
-6 0 -43 16 -83 35 -41 20 -107 42 -148 51 -41 8 -105 26 -144 39 -105 35
-249 80 -350 110 -49 15 -94 31 -100 36 -5 5 -17 9 -26 9 -9 0 -22 7 -29 15
-10 12 -7 19 17 39 15 14 34 26 41 26 6 0 12 3 12 8 0 7 50 35 83 46 9 3 17
11 17 18 0 12 62 68 74 68 4 0 6 -11 6 -25 0 -18 5 -25 20 -25 12 0 20 -7 20
-16 0 -11 -6 -15 -17 -11 -10 2 -22 6 -28 7 -5 2 -26 -4 -45 -12 l-34 -16 38
-16 c21 -9 40 -16 43 -16 2 0 29 -11 59 -25 30 -14 57 -25 59 -25 2 0 32 -13
67 -29 35 -16 86 -37 113 -46 51 -18 353 -165 525 -255 52 -27 100 -49 105
-49 19 -1 -91 64 -221 129 -71 36 -131 68 -134 71 -6 7 -79 41 -215 100 -55
24 -113 51 -130 61 -16 10 -38 21 -48 24 -23 8 -16 29 10 28 28 -2 197 -57
201 -66 2 -5 10 -8 17 -8 31 0 122 -35 145 -56 14 -12 68 -37 120 -54 52 -17
129 -50 170 -72 138 -76 219 -118 225 -118 17 0 0 20 -27 34 -18 8 -51 27 -73
40 -46 29 -26 34 40 11 68 -25 65 -35 65 183 l0 197 -146 44 c-130 39 -147 41
-157 27 -11 -14 -17 -14 -62 -1 -124 35 -325 111 -325 121 0 16 -25 25 -38 12
-7 -7 -12 -3 -17 11 -3 12 -15 21 -25 21 -22 0 -31 12 -22 27 16 25 205 161
218 156 15 -6 12 -14 -37 -91 -15 -25 -26 -49 -23 -53 2 -5 19 -13 37 -18 18
-5 84 -25 147 -44 63 -19 124 -37 135 -40 27 -7 276 -84 298 -93 16 -6 17 28
17 553 l0 559 -87 33 c-112 43 -163 69 -163 81 0 12 33 13 44 3 4 -4 24 -13
44 -19 20 -6 62 -21 92 -33 52 -20 54 -20 30 -2 -14 11 -46 30 -72 42 -27 12
-48 26 -48 31 0 4 -8 8 -18 8 -25 0 -66 45 -59 64 4 9 13 16 21 16 14 0 178
-83 204 -103 9 -7 12 91 12 483 l0 493 -35 -47 c-20 -25 -39 -46 -43 -46 -4 0
-16 -13 -25 -29 -18 -30 -91 -111 -101 -111 -3 0 -25 -21 -49 -47 -36 -37 -50
-46 -77 -45 -43 1 -53 12 -40 47 9 24 9 26 -4 16 -40 -34 -201 17 -504 160
-46 21 -86 39 -90 39 -4 0 -20 7 -37 16 -48 25 -169 74 -182 74 -7 0 -13 3
-13 8 0 4 -24 16 -52 26 -29 10 -71 26 -93 36 -91 41 -133 58 -190 81 -33 13
-61 27 -63 32 -2 4 -10 7 -18 7 -9 0 -40 11 -70 25 -30 14 -57 25 -60 25 -3 0
-31 12 -62 26 -82 37 -108 48 -192 79 -41 15 -79 31 -85 35 -5 5 -66 31 -135
58 -69 28 -233 96 -365 152 -132 56 -285 119 -340 142 -116 47 -140 65 -131
101 3 14 12 32 19 39 7 7 42 51 77 98 65 88 345 453 367 480 7 8 54 69 105
135 50 66 114 149 142 185 28 36 80 103 115 150 35 47 89 117 120 155 31 39
83 106 116 150 256 338 530 680 569 710 54 40 116 68 166 73 40 4 94 -11 366
-102 175 -59 328 -111 339 -116 11 -5 56 -21 100 -35 44 -15 89 -30 100 -35
29 -14 337 -120 347 -120 4 0 8 38 8 85 0 47 -2 85 -5 85 -3 0 -24 -13 -47
-30 -41 -30 -62 -35 -92 -24 -18 7 -22 24 -5 24 21 0 149 96 149 112 0 4 -40
-19 -89 -52 -48 -33 -97 -60 -107 -60 -27 0 -64 11 -64 19 0 3 37 31 82 61
107 72 178 128 178 141 0 9 -73 -39 -237 -154 -29 -20 -58 -37 -65 -37 -7 0
-35 8 -62 19 l-49 18 44 29 c24 16 46 31 49 34 6 6 109 78 144 100 109 69 175
117 175 128 2 23 -26 12 -95 -39 -38 -28 -100 -71 -139 -97 -38 -25 -72 -48
-75 -52 -19 -21 -132 -90 -147 -89 -10 0 -38 9 -63 19 l-45 19 38 0 c52 1 89
22 120 69 50 76 44 157 -14 207 -60 50 -153 25 -206 -54 -17 -25 -23 -48 -23
-88 0 -50 4 -59 35 -90 l36 -36 -36 6 c-40 7 -95 42 -95 62 0 7 -11 32 -24 56
l-25 43 -12 -27 c-9 -20 -17 -26 -31 -21 -12 3 -27 -1 -39 -12 -18 -16 -22
-16 -74 1 -30 9 -57 20 -59 24 -3 4 16 21 42 39 26 17 76 52 112 77 36 25 119
83 185 127 66 45 143 98 170 118 28 20 93 66 145 102 52 36 128 88 169 116 73
50 96 56 104 24 3 -10 5 -1 6 18 l1 35 20 -25 c34 -43 24 8 -10 55 -17 22 -36
54 -45 70 -13 28 -14 28 -15 7 0 -13 4 -32 10 -42 8 -16 -20 -38 -233 -180
-133 -90 -244 -165 -247 -169 -3 -3 -13 -10 -22 -16 -10 -5 -59 -39 -110 -74
-51 -35 -147 -100 -213 -145 -66 -44 -126 -86 -133 -93 -17 -17 -42 -16 -83 1
-27 11 -42 29 -67 79 -28 57 -34 97 -13 97 3 0 69 45 146 100 152 108 190 134
460 322 348 242 405 279 415 273 6 -4 26 -37 45 -73 19 -38 34 -58 34 -47 1
11 -10 39 -23 62 -14 24 -22 45 -18 47 8 5 54 -15 97 -43 17 -11 33 -20 38
-20 4 -1 7 28 7 64 0 36 -4 65 -9 65 -5 0 -16 6 -23 13 -12 11 -78 45 -158 81
-43 19 -169 46 -217 46 -53 0 -168 -37 -201 -65 -39 -32 -45 -62 -27 -121 21
-69 19 -91 -10 -110 -23 -15 -30 -15 -98 0 -117 26 -180 94 -142 152 18 27 50
31 79 9 25 -19 72 -19 79 -1 8 20 -48 73 -100 97 -60 27 -121 25 -169 -7 -21
-14 -71 -59 -111 -100 -64 -67 -75 -74 -110 -74 -69 0 -133 61 -133 128 0 33
38 98 81 137 92 83 302 153 489 162 137 7 189 -4 328 -74 131 -65 212 -82 212
-44 0 11 -4 21 -10 21 -5 0 -10 6 -10 13 0 6 -17 23 -38 37 -32 22 -49 25
-124 26 -92 1 -118 11 -118 46 0 29 58 76 102 83 109 19 196 -38 263 -169 24
-47 52 -95 62 -105 26 -28 94 -81 104 -81 5 0 9 169 9 376 l0 376 -47 -6 c-56
-8 -297 -52 -363 -66 -25 -5 -65 -13 -90 -16 -25 -4 -50 -11 -56 -15 -6 -5
-18 -3 -28 4 -15 11 -9 14 46 25 35 7 83 17 108 22 25 6 119 24 210 40 91 17
177 34 193 36 19 4 27 12 27 26 0 18 -4 20 -32 14 -18 -4 -55 -12 -83 -17 -27
-5 -88 -16 -135 -24 -140 -26 -150 -28 -150 -18 0 11 51 24 248 60 101 18 152
32 152 40 0 15 -10 16 -70 2 -66 -15 -141 -30 -170 -34 -65 -11 -144 -26 -151
-30 -4 -3 -9 0 -11 7 -3 9 -13 7 -34 -7 -16 -10 -38 -20 -49 -22 -11 -1 -45
-7 -75 -12 -68 -12 -90 2 -74 46 6 16 15 27 22 26 6 -2 20 11 32 27 12 17 19
30 17 30 -3 0 6 30 19 68 13 37 24 77 24 90 0 13 5 33 12 45 7 12 22 61 34
110 l21 87 -77 0 -77 0 -21 -67 c-67 -218 -66 -213 -46 -228 17 -13 18 -14 2
-15 -10 0 -25 -11 -34 -25 -9 -14 -24 -25 -33 -25 -14 -1 -14 -2 1 -11 17 -9
17 -12 3 -39 -9 -18 -24 -30 -35 -30 -24 0 -25 14 -4 71 9 24 17 51 18 59 4
25 17 74 26 95 10 23 60 196 60 208 0 4 -15 7 -33 7 -31 0 -33 -3 -56 -67 -12
-38 -31 -86 -41 -108 -10 -22 -25 -76 -35 -120 -17 -78 -58 -182 -80 -198 -21
-17 -719 21 -940 51 -38 6 -81 10 -95 10 -14 -1 -50 4 -80 11 -60 12 -89 39
-90 82 0 35 10 42 29 18 17 -21 65 -28 346 -49 77 -6 190 -15 250 -20 311 -27
362 -29 395 -21 22 6 27 10 15 11 -11 1 -40 3 -65 6 -25 2 -103 8 -175 13 -71
6 -218 17 -325 26 -107 9 -226 19 -265 22 -38 3 -74 10 -80 15 -11 11 28 10
390 -17 318 -23 466 -34 526 -40 64 -6 59 -11 94 105 9 30 20 62 25 71 7 14
50 180 50 195 0 2 -30 4 -67 4 l-68 0 -51 -158 -52 -157 -83 0 c-106 0 -607
37 -621 46 -7 4 4 44 30 115 63 171 64 156 -8 152 l-63 -3 -32 -80 c-18 -44
-40 -93 -50 -110 l-17 -30 7 29 c16 72 16 85 6 103 -9 16 -10 16 -11 1 0 -26
-15 -29 -15 -3 0 15 5 21 15 20 8 -2 18 -4 22 -4 3 -1 8 -7 11 -13 2 -7 2 -4
0 7 -3 11 -5 29 -6 40 -4 43 -21 46 -294 42 -291 -4 -317 -8 -803 -111 -63
-14 -142 -32 -175 -40 -33 -8 -112 -28 -175 -44 -108 -27 -140 -30 -140 -12 0
4 33 15 73 24 117 28 137 33 242 59 164 41 312 72 465 98 128 21 117 27 -51
28 -91 1 -169 -2 -173 -6 -4 -4 -53 -17 -109 -30 -169 -36 -451 -110 -511
-132 -31 -12 -89 -14 -100 -4 -3 4 22 14 56 24 35 9 117 31 183 49 66 18 147
39 180 47 208 49 211 52 60 49 -121 -2 -233 -22 -320 -57 -11 -4 -47 -15 -80
-25 -33 -9 -95 -28 -138 -41 -59 -19 -84 -22 -105 -15 -27 9 -26 9 18 21 25 7
64 19 88 27 23 8 49 14 57 14 9 0 23 4 33 9 9 5 64 22 122 38 l105 28 -102 3
c-101 3 -165 -11 -278 -58 -11 -5 -36 -12 -55 -16 -19 -3 -53 -15 -74 -25 -43
-20 -111 -25 -121 -9 -3 6 0 10 7 10 17 0 234 68 273 85 28 13 24 14 -62 14
-50 1 -94 -3 -97 -8 -3 -4 -34 -16 -68 -25 -35 -9 -81 -26 -103 -36 -40 -19
-109 -40 -132 -40 -7 0 -13 7 -13 15 0 9 9 15 23 15 13 0 27 4 33 8 5 5 38 17
74 27 36 10 74 25 85 32 17 11 10 13 -54 13 -70 0 -158 -24 -223 -60 -10 -6
-25 -10 -33 -10 -8 0 -15 -4 -15 -9 0 -11 -92 -23 -114 -15 -12 5 0 12 41 26
59 19 72 24 133 52 l35 16 -76 0 c-41 0 -79 -4 -85 -9 -5 -5 -34 -18 -64 -29
-31 -11 -76 -30 -100 -43 -28 -15 -65 -24 -104 -26 -34 -2 -54 0 -46 3 8 3 58
22 110 42 52 19 104 41 115 49 17 11 11 13 -52 13 -40 0 -74 -4 -77 -9 -10
-16 -164 -73 -188 -69 -18 4 -8 12 52 41 l75 36 -59 0 c-42 1 -69 -5 -96 -20
-41 -23 -76 -20 -66 6 5 13 -104 15 -922 14 -838 -1 -924 -2 -892 -16 l35 -15
-30 -24 c-17 -13 -37 -24 -46 -24 -9 0 -60 14 -115 30 l-99 30 -25 -28 c-76
-86 -218 -266 -214 -273 2 -3 44 -19 94 -34 70 -22 89 -32 86 -44 -3 -9 -10
-45 -17 -81 -7 -36 -13 -66 -14 -68 -5 -6 -171 51 -184 63 -8 8 -16 43 -18 82
l-5 70 131 161 c72 90 131 165 131 167 0 3 -39 5 -87 5 l-88 0 -50 -77z m5219
42 c-4 -10 -20 -15 -47 -15 -22 0 -66 -5 -96 -10 -31 -6 -126 -19 -211 -30
-303 -39 -533 -82 -804 -150 -122 -31 -189 -39 -170 -20 6 6 21 12 33 15 13 2
69 16 125 31 55 14 121 29 146 34 25 4 113 21 195 38 230 46 492 85 650 98
156 12 167 13 173 18 9 10 12 7 6 -9z m-36 -91 c-2 -12 -17 -18 -53 -20 -64
-4 -214 -22 -285 -34 -30 -4 -91 -13 -135 -19 -44 -6 -102 -15 -130 -20 -134
-26 -227 -44 -305 -61 -183 -41 -200 -44 -211 -33 -16 16 251 76 521 117 58 9
130 21 160 26 93 16 303 40 355 40 28 0 57 5 65 10 20 13 22 13 18 -6z m-2123
-14 c107 -10 247 -26 353 -39 70 -9 93 -31 31 -31 -27 0 -66 -10 -104 -28 -33
-16 -134 -61 -224 -102 l-163 -73 -32 18 c-17 10 -50 31 -74 47 -24 15 -45 28
-48 28 -2 0 -49 30 -105 66 -55 36 -112 70 -125 76 -37 17 -29 26 29 32 28 3
66 8 82 9 68 8 277 6 380 -3z m2085 -85 c-7 -8 -15 -13 -19 -11 -3 2 -33 0
-66 -4 -185 -24 -412 -57 -480 -70 -27 -5 -81 -14 -120 -19 -38 -6 -83 -14
-100 -20 -55 -17 -165 -33 -182 -26 -22 8 35 24 177 49 52 9 111 21 130 26 19
5 87 16 150 25 63 9 140 20 170 25 30 5 114 14 185 21 72 6 132 13 134 15 2 2
11 4 19 4 12 0 12 -3 2 -15z m-1325 -55 c61 -17 129 -38 153 -46 23 -8 50 -14
60 -14 9 0 24 -6 32 -13 20 -15 50 -92 41 -104 -5 -9 -67 -47 -204 -127 -18
-10 -102 -60 -189 -112 -86 -52 -161 -94 -168 -94 -17 0 -97 57 -103 75 -4 10
0 15 11 16 9 0 -8 6 -38 13 -58 13 -89 27 -129 57 -24 19 -24 19 36 13 59 -6
60 -6 214 74 273 142 324 170 334 187 13 20 1 27 -102 60 -56 18 -83 32 -83
42 0 8 6 13 13 11 6 -3 62 -20 122 -38z m-405 -18 c0 -5 11 -15 25 -22 16 -8
21 -16 14 -20 -6 -4 2 -10 18 -13 15 -3 30 -1 31 4 2 5 39 9 83 9 76 0 80 1
89 26 7 18 16 24 32 22 41 -6 29 -27 -31 -58 -33 -16 -68 -30 -78 -31 -13 0
-11 -3 7 -10 19 -8 22 -12 10 -19 -8 -5 -17 -7 -20 -6 -3 2 -58 16 -122 31
-64 15 -125 33 -135 40 -17 13 -16 14 7 24 14 5 21 10 17 10 -5 1 -5 6 -2 11
7 12 55 13 55 2z m1709 -24 c0 -13 -3 -18 -5 -12 -3 8 -18 9 -47 3 -23 -4 -63
-8 -89 -9 -25 0 -68 -4 -95 -10 -26 -5 -101 -16 -166 -25 -123 -16 -267 -41
-327 -55 -100 -24 -153 -31 -162 -22 -7 7 -4 12 8 16 30 9 210 43 324 60 58 9
130 21 160 25 96 16 212 31 305 40 50 4 91 9 93 10 1 0 2 -9 1 -21z m11 -80
c0 -9 -20 -14 -58 -16 -31 -1 -84 -6 -117 -12 -33 -5 -100 -14 -150 -21 -94
-12 -172 -24 -215 -33 -14 -3 -92 -17 -173 -32 -139 -24 -174 -25 -151 -6 8 7
163 38 284 57 19 3 80 12 135 20 104 17 220 30 340 40 38 4 72 8 74 11 9 9 31
3 31 -8z m-2020 -38 c0 -25 143 -65 200 -55 59 10 70 16 70 34 0 28 10 31 43
15 l30 -16 -53 -31 c-29 -17 -69 -36 -89 -43 -34 -12 -34 -13 -8 -14 15 0 27
-4 27 -10 0 -16 -28 -12 -128 18 -63 19 -97 35 -108 50 -8 12 -24 22 -35 22
-24 0 -25 16 -1 29 22 13 52 14 52 1z m2110 -50 c0 -5 -21 -10 -47 -11 -27 0
-59 -2 -73 -3 -14 -1 -59 -6 -100 -10 -41 -3 -102 -11 -135 -16 -33 -5 -109
-17 -170 -25 -123 -18 -244 -40 -322 -56 -60 -14 -106 -4 -63 13 14 5 66 16
115 24 50 8 106 17 125 20 47 7 206 30 305 44 44 6 136 15 205 19 69 5 133 9
143 10 9 0 17 -3 17 -9z m-1074 -70 c13 -36 24 -70 24 -75 0 -6 -24 -25 -52
-42 -29 -17 -125 -74 -213 -128 -87 -53 -164 -99 -171 -102 -13 -5 -154 83
-154 97 0 7 70 55 128 87 78 42 309 183 352 214 43 31 60 21 86 -51z m1243 44
c22 -5 31 -12 31 -26 0 -34 -75 -56 -223 -67 -99 -7 -150 -16 -203 -35 -110
-40 -147 -32 -81 18 61 46 142 76 302 109 32 7 140 8 174 1z m-4842 -55 c26
-12 63 -34 83 -50 35 -29 476 -351 839 -613 53 -39 132 -96 176 -129 44 -32
91 -66 103 -75 13 -9 39 -28 57 -42 18 -14 43 -32 55 -40 28 -19 122 -88 135
-99 6 -4 35 -25 65 -46 30 -21 79 -57 109 -79 30 -23 107 -79 172 -126 65 -47
163 -117 216 -156 54 -39 108 -76 120 -82 12 -7 27 -18 35 -25 7 -7 48 -37 91
-67 137 -97 252 -179 262 -188 6 -5 15 -11 20 -13 28 -11 133 -88 156 -112 39
-42 55 -75 42 -88 -13 -13 -89 24 -188 92 -90 62 -437 310 -539 386 -134 99
-213 157 -238 175 -12 9 -63 46 -113 82 -49 37 -138 101 -198 144 -59 42 -164
120 -233 172 -70 52 -136 102 -148 110 -44 30 -201 145 -213 155 -6 5 -54 40
-105 78 -142 103 -262 191 -273 200 -5 4 -62 45 -125 92 -436 319 -470 345
-470 362 0 19 39 13 107 -18z m748 -1243 c116 -74 215 -139 220 -143 6 -5 28
-19 50 -33 54 -32 509 -333 515 -340 3 -4 25 -20 50 -37 56 -38 147 -120 160
-143 6 -11 4 -36 -5 -71 -27 -99 -14 -218 37 -339 76 -180 173 -300 301 -372
107 -61 117 -72 117 -136 -1 -32 -5 -77 -10 -102 -10 -45 -17 -80 -43 -220 -8
-41 -24 -122 -36 -180 -12 -58 -26 -130 -32 -160 -6 -30 -17 -82 -24 -115 -7
-33 -18 -87 -25 -120 -62 -317 -103 -415 -175 -415 -38 0 -134 61 -312 200
-313 244 -461 354 -743 551 -47 33 -92 65 -100 72 -8 7 -32 23 -53 37 -50 34
-47 42 5 17 125 -62 313 -7 332 96 8 45 -8 150 -34 227 -50 146 -124 266 -234
376 -168 168 -344 201 -450 84 -54 -60 -66 -124 -44 -235 l11 -58 -54 -48
c-30 -27 -59 -49 -65 -49 -21 0 -93 72 -132 133 -70 111 -74 199 -32 712 23
274 40 560 40 669 0 99 3 118 16 123 9 3 25 1 35 -5 11 -7 29 -18 41 -24 12
-7 28 -19 36 -26 24 -22 88 -51 135 -62 61 -13 140 2 185 36 44 34 84 119 84
182 1 50 5 65 16 58 4 -2 102 -65 217 -140z m-375 103 c0 -27 -36 -83 -64
-100 -38 -23 -160 -25 -219 -5 -41 15 -107 62 -107 77 0 16 43 9 105 -16 86
-36 116 -39 179 -21 41 12 59 24 73 46 18 30 33 39 33 19z m5113 -490 c-8 -8
-4 -18 13 -37 29 -30 26 -48 -7 -45 -34 3 -145 -44 -202 -85 -48 -34 -118
-116 -257 -298 -41 -54 -90 -114 -108 -133 -18 -18 -48 -57 -67 -85 -19 -28
-48 -67 -64 -86 l-30 -35 -19 45 c-11 25 -34 75 -51 113 -17 37 -31 70 -31 74
0 4 10 17 22 30 23 25 53 30 62 11 3 -7 3 -2 0 12 -4 21 1 29 28 43 56 29 163
98 166 108 2 5 9 9 17 9 7 0 18 7 25 15 7 9 19 14 27 11 7 -3 13 0 13 6 0 15
31 37 53 38 10 0 16 4 13 9 -3 4 10 17 29 27 19 10 35 22 35 26 0 5 7 8 15 8
8 0 15 4 15 9 0 5 12 14 28 20 15 6 41 24 57 39 45 41 84 64 97 56 6 -4 8 -3
5 3 -9 14 19 37 32 28 7 -3 8 0 5 9 -4 10 -1 16 8 16 8 0 28 11 44 25 29 25
48 35 27 14z m-1095 -131 c19 -119 14 -213 -15 -288 -55 -142 -97 -247 -118
-295 -12 -27 -35 -84 -51 -125 -16 -41 -32 -76 -36 -78 -5 -2 -8 -9 -8 -15 0
-7 -18 -55 -39 -107 -29 -69 -42 -90 -47 -77 -3 10 1 44 11 75 57 186 67 219
75 237 5 11 21 54 35 95 25 67 36 96 66 165 81 191 83 199 88 453 1 19 6 32
14 32 8 0 17 -26 25 -72z m118 -418 c50 -25 127 -100 151 -149 10 -20 23 -67
28 -106 11 -77 2 -108 -48 -170 l-24 -29 4 99 3 100 -23 -47 c-12 -26 -33 -58
-45 -71 -32 -34 -114 -72 -197 -92 -96 -23 -126 -37 -174 -80 -36 -33 -41 -35
-41 -17 0 33 15 65 47 97 30 32 45 40 133 78 85 37 137 73 166 117 35 53 28
80 -30 108 -52 27 -76 59 -76 105 0 39 31 77 62 77 12 0 41 -9 64 -20z m-2476
-302 c156 -76 198 -81 290 -37 48 23 94 18 114 -14 19 -30 -20 -87 -83 -119
-123 -64 -267 -8 -373 147 -46 66 -41 68 52 23z m-1590 -347 c48 -25 88 -92
96 -164 8 -65 13 -56 -92 -142 -53 -44 -141 -117 -211 -175 -11 -10 -45 -38
-75 -62 -76 -62 -106 -88 -155 -132 -24 -21 -45 -37 -46 -35 -2 2 -24 36 -50
74 -53 81 -95 127 -137 152 -16 9 -30 22 -29 28 0 5 32 35 70 65 39 30 83 66
97 80 15 14 76 66 137 115 60 50 117 97 126 105 29 28 84 75 114 98 24 19 37
22 75 17 25 -3 61 -14 80 -24z m3602 -220 c13 -6 62 -22 110 -37 98 -30 97
-29 34 -97 -20 -21 -36 -40 -36 -43 0 -3 -21 -30 -47 -60 -27 -31 -48 -58 -48
-62 -1 -21 -18 -31 -45 -25 -23 4 -30 2 -30 -10 0 -9 8 -21 18 -26 16 -10 16
-12 -1 -25 -14 -11 -24 -11 -53 -1 -53 18 -58 26 -41 76 17 51 30 56 89 36 24
-8 47 -13 52 -10 4 3 -18 15 -50 26 -33 11 -60 21 -62 22 -1 1 3 15 9 31 7 16
11 33 10 38 -1 4 1 17 5 28 4 15 13 19 34 16 16 -2 27 -1 24 4 -3 4 -14 8 -24
8 -17 0 -19 5 -14 48 9 78 15 84 66 63z m-3390 -701 c169 -44 197 -55 236 -87
26 -21 40 -39 33 -41 -7 -2 -43 5 -79 16 -37 11 -94 27 -127 36 -33 9 -100 27
-150 40 -49 14 -107 28 -128 31 -43 8 -54 20 -37 40 19 23 47 19 252 -35z
m-1772 -146 c15 -43 8 -105 -14 -139 -17 -26 -49 -32 -76 -15 -23 14 -16 78
14 138 32 64 59 70 76 16z m2209 -94 c46 -37 58 -60 30 -60 -5 0 -26 -11 -47
-23 -34 -22 -111 -64 -247 -136 -27 -14 -52 -28 -55 -31 -3 -3 -16 -11 -30
-18 -14 -7 -38 -21 -55 -31 -16 -11 -58 -34 -92 -52 -34 -18 -60 -36 -57 -40
2 -4 -1 -9 -8 -11 -8 -3 -8 -7 -2 -11 6 -3 28 9 50 28 41 36 74 45 74 20 0 -8
-9 -15 -19 -15 -31 0 -50 -11 -45 -24 3 -8 -11 -19 -35 -28 -32 -13 -39 -13
-34 -2 3 8 -1 14 -10 14 -8 0 -18 6 -21 13 -3 6 -4 0 -1 -15 4 -23 2 -28 -15
-28 -12 0 -18 5 -15 10 7 12 3 12 -19 4 -22 -8 -20 -21 4 -29 24 -8 17 -25
-10 -25 -10 0 -20 -5 -22 -12 -2 -6 -10 -8 -16 -4 -20 12 -13 26 13 26 22 0
24 2 13 14 -11 12 -16 12 -33 0 -11 -8 -27 -14 -37 -14 -10 0 -18 -4 -18 -8 0
-5 -30 -24 -67 -42 -38 -19 -70 -36 -73 -39 -5 -6 -38 -22 -117 -59 -21 -9
-40 -20 -43 -23 -3 -3 -56 -32 -119 -65 -62 -32 -115 -64 -118 -70 -2 -6 7
-28 21 -49 14 -21 26 -44 26 -51 0 -9 12 -14 32 -14 17 0 51 -11 74 -25 30
-18 51 -24 69 -19 22 5 27 2 41 -31 8 -21 21 -43 28 -49 22 -21 75 -56 84 -56
4 0 6 26 4 58 l-4 59 43 25 c137 79 525 278 543 278 16 0 29 -38 42 -117 12
-76 12 -76 -361 -268 -93 -48 -174 -91 -178 -95 -5 -4 5 -17 22 -29 39 -28 85
-25 89 5 2 12 13 24 25 28 30 8 35 -2 6 -13 -19 -8 -20 -10 -6 -10 11 -1 31 7
45 18 15 10 61 36 102 57 107 54 192 105 186 112 -6 6 33 42 46 42 14 0 9 -19
-9 -29 -10 -6 -13 -10 -8 -10 6 0 57 24 115 53 95 48 108 58 132 102 15 27 28
52 28 56 0 4 -19 -2 -42 -12 -64 -29 -76 -26 -83 18 -3 20 -12 68 -20 106 -11
50 -12 72 -4 82 8 10 224 124 235 124 10 0 32 -74 43 -143 12 -71 11 -80 -5
-98 -17 -19 -16 -19 12 -14 180 30 188 33 339 113 84 45 150 86 149 94 -1 7
-4 23 -8 36 -11 32 9 28 58 -11 23 -19 46 -36 51 -38 27 -11 174 -121 179
-135 7 -19 -28 -35 -177 -75 -62 -17 -118 -33 -124 -35 -16 -4 -17 -24 -2 -24
25 0 285 72 304 84 23 15 67 14 72 -1 2 -6 -10 -15 -26 -21 -23 -8 -31 -17
-30 -34 1 -13 -2 -37 -6 -54 -7 -31 -6 -32 48 -52 30 -11 99 -26 153 -33 94
-11 101 -11 136 9 34 20 37 20 52 3 9 -10 16 -23 16 -29 0 -16 57 -15 160 3
47 8 86 15 88 15 2 0 0 9 -3 20 -4 13 -2 20 7 20 22 0 90 -50 85 -63 -2 -7
-24 -16 -48 -22 -24 -5 -50 -14 -57 -18 -7 -5 -36 -6 -65 -3 -35 3 -42 2 -22
-3 21 -5 25 -10 15 -14 -27 -11 -95 -27 -114 -27 -15 0 -16 3 -6 15 23 27 7
31 -122 27 -47 -1 -68 -6 -68 -14 1 -14 130 -79 158 -80 23 0 127 23 297 66
77 20 144 36 148 36 23 0 -76 -67 -114 -79 -24 -7 -58 -17 -75 -22 -17 -5 -40
-9 -52 -9 -12 0 -22 -4 -22 -10 0 -13 36 -13 61 1 11 6 25 9 31 7 10 -4 -87
-78 -174 -133 -26 -17 -47 -34 -48 -40 -1 -16 -80 -46 -99 -36 -9 4 -35 11
-59 15 -42 6 -106 40 -129 68 -7 7 -15 29 -18 48 -3 19 -13 40 -21 47 -24 18
-148 53 -187 53 -33 0 -132 49 -178 87 -18 15 -29 17 -29 5 0 -4 30 -28 68
-52 l67 -45 -115 -8 c-87 -6 -118 -12 -127 -24 -10 -13 -15 -14 -27 -4 -13 11
-12 21 10 81 26 73 30 100 13 100 -5 0 -46 -19 -90 -41 l-80 -42 36 -30 c73
-60 150 -137 137 -137 -13 0 -78 46 -172 122 l-36 28 -94 -50 c-51 -27 -102
-52 -112 -56 -10 -3 -18 -9 -18 -13 0 -8 66 -65 140 -121 18 -14 41 -32 50
-40 21 -17 27 -22 130 -105 41 -33 84 -68 95 -78 11 -10 68 -57 128 -104 59
-48 107 -90 107 -94 0 -4 -8 -12 -17 -18 -17 -9 -68 26 -203 139 -25 20 -97
80 -160 132 -63 51 -124 101 -135 110 -11 9 -58 47 -104 84 l-84 68 -105 -55
c-133 -68 -147 -79 -168 -134 -15 -41 -15 -47 -1 -58 36 -28 163 -133 177
-146 8 -8 58 -48 110 -90 52 -41 114 -93 137 -115 24 -21 60 -50 80 -64 54
-37 113 -93 113 -108 0 -7 -9 -16 -20 -19 -16 -5 -36 5 -76 37 -30 24 -83 66
-118 93 -36 28 -77 62 -93 77 -15 15 -107 90 -204 168 -97 77 -182 146 -188
154 -8 10 -7 20 4 42 8 16 15 32 15 36 0 10 -164 -78 -167 -89 -1 -4 21 -26
50 -48 28 -22 76 -63 107 -91 30 -28 71 -61 90 -75 40 -27 111 -90 255 -224
55 -51 117 -108 138 -127 40 -37 46 -58 22 -78 -18 -15 -9 -21 -138 102 -124
119 -214 201 -252 230 -16 12 -47 38 -68 58 -21 19 -49 41 -62 50 -13 9 -41
31 -62 51 -75 69 -150 118 -179 117 -41 -1 -313 125 -321 148 -1 5 15 19 37
32 l40 23 -22 23 c-13 12 -51 44 -86 71 -55 43 -64 46 -75 32 -18 -23 -88 -59
-103 -53 -26 10 -14 31 28 51 23 11 44 25 45 31 6 20 -77 78 -111 79 -24 0
-32 5 -34 23 -3 22 -42 33 -42 12 0 -5 -22 -10 -50 -10 -48 0 -67 14 -35 26
24 10 18 59 -12 96 -15 18 -28 35 -29 36 -2 2 -25 -8 -53 -24 l-51 -27 -55 38
c-44 30 -53 40 -44 51 6 8 15 14 19 14 5 0 35 15 68 34 33 19 98 48 143 65
130 50 183 78 271 144 112 86 133 99 234 153 49 25 94 50 99 54 6 4 73 41 150
82 77 42 160 87 185 100 106 59 159 88 225 123 39 21 74 41 80 46 18 17 44 9
94 -31z m2599 -172 c20 -12 31 -26 28 -34 -3 -8 1 -14 10 -14 8 0 12 5 9 10
-9 15 18 12 40 -4 17 -12 22 -10 47 25 l28 39 38 -16 c20 -9 65 -27 98 -40 34
-13 81 -32 105 -42 24 -11 121 -52 214 -91 94 -40 190 -81 215 -91 25 -11 90
-38 145 -61 55 -22 123 -51 150 -64 28 -12 60 -25 73 -29 27 -9 28 -30 4 -77
-22 -43 -18 -48 63 -78 33 -13 101 -42 151 -65 49 -24 101 -47 115 -51 13 -4
79 -34 147 -66 68 -33 129 -59 136 -59 8 0 19 -6 25 -14 6 -7 25 -16 41 -20
16 -3 71 -26 122 -50 51 -25 105 -48 121 -52 15 -3 27 -10 27 -15 0 -5 9 -9
19 -9 11 0 23 -4 26 -10 3 -5 15 -10 25 -10 10 0 20 -3 22 -7 5 -12 85 -53
103 -53 9 0 28 -8 43 -17 15 -9 28 -18 30 -19 1 -1 4 -11 7 -23 2 -13 -7 -32
-25 -52 l-29 -32 -61 23 c-69 26 -79 39 -56 72 18 25 21 48 7 48 -5 0 -23 -13
-39 -30 -34 -34 -62 -37 -117 -14 -45 19 -49 16 -86 -68 -27 -60 -28 -61 -28
-28 0 19 7 53 15 75 28 73 28 82 2 83 -12 0 -67 20 -121 46 -55 25 -101 46
-103 46 -3 0 -60 25 -127 56 -67 31 -167 75 -222 99 -55 24 -143 63 -195 88
-52 24 -112 50 -134 58 -21 8 -40 19 -43 25 -2 7 -12 10 -21 7 -15 -3 -100 31
-307 122 -16 7 -61 25 -100 40 -38 14 -98 39 -131 56 -34 16 -64 29 -68 29 -3
0 -29 11 -58 25 -28 14 -60 25 -69 25 -10 0 -20 4 -23 9 -3 5 -17 12 -31 15
-14 4 -49 17 -78 30 -28 13 -86 39 -127 56 -41 18 -95 42 -120 53 -25 12 -67
23 -95 26 -49 6 -50 7 -52 41 -4 44 12 64 68 89 51 23 97 20 147 -11z m-2259
-145 c12 -47 33 -151 35 -176 1 -14 -27 -34 -109 -78 -60 -32 -118 -59 -128
-59 -22 0 -31 25 -47 133 -13 83 -12 88 6 102 24 18 51 19 56 3 3 -9 9 -8 22
5 10 9 23 17 29 17 7 0 -3 -13 -22 -29 -19 -16 -40 -27 -46 -24 -7 2 -17 -9
-24 -27 -8 -25 -7 -36 6 -56 25 -38 66 -56 100 -43 66 25 116 106 93 149 -7
12 -32 31 -57 42 -49 22 -49 22 5 54 55 33 70 30 81 -13z m-699 -123 c0 -6 -7
-13 -15 -16 -8 -4 -15 -12 -15 -18 0 -14 -70 -56 -94 -56 -9 0 -16 -4 -16 -9
0 -11 -95 -71 -111 -71 -7 0 -20 10 -31 22 l-19 22 38 14 c21 7 46 18 55 23
10 5 24 9 32 9 8 0 16 7 20 15 3 8 16 15 28 15 16 0 19 3 10 9 -11 7 -10 10 3
15 9 3 23 6 32 6 8 0 21 7 29 15 17 17 54 20 54 5z m2660 -75 c0 -23 -34 -65
-52 -65 -13 0 -369 -247 -441 -306 -24 -20 -45 -18 -81 10 -17 13 -50 33 -73
45 -42 21 -56 41 -29 41 7 0 30 11 50 25 33 22 47 25 130 25 51 0 108 5 127
11 79 24 186 86 238 137 29 29 64 55 77 58 15 4 24 14 24 25 0 10 7 19 15 19
9 0 15 -9 15 -25z m-2943 -86 c16 -16 5 -39 -18 -39 -10 0 -19 -4 -19 -10 0
-5 -11 -10 -23 -10 -13 0 -32 -9 -42 -20 -10 -11 -24 -20 -32 -20 -7 0 -13 -4
-13 -10 0 -5 -11 -10 -24 -10 -13 0 -26 -6 -29 -13 -6 -15 -75 -39 -82 -28
-11 19 10 50 46 67 21 11 39 22 39 27 0 4 9 7 20 7 14 0 18 -5 13 -17 -4 -11
-3 -14 5 -9 7 4 12 13 12 21 0 19 80 73 111 74 14 1 30 -4 36 -10z m2998 -19
c10 -11 22 -17 27 -14 5 3 17 -1 26 -9 9 -8 43 -28 75 -46 47 -25 70 -31 119
-31 64 0 58 2 293 -112 55 -26 105 -48 110 -48 6 0 40 -15 75 -34 36 -18 76
-37 90 -41 24 -7 158 -68 265 -120 28 -14 53 -25 57 -25 4 0 50 -20 102 -45
53 -25 98 -45 101 -45 4 0 43 -17 88 -39 45 -21 100 -46 122 -56 22 -9 47 -21
55 -26 8 -5 24 -13 35 -18 80 -35 160 -73 290 -136 197 -95 228 -109 305 -135
36 -12 69 -28 73 -36 7 -11 12 -12 22 -4 10 8 25 8 57 -1 61 -17 98 -33 98
-42 0 -4 6 -7 13 -5 24 5 67 -13 67 -28 0 -8 4 -12 10 -9 16 10 -11 43 -39 49
-38 8 -93 45 -85 57 9 15 49 3 122 -37 58 -33 72 -54 36 -54 -9 0 -14 -6 -11
-12 2 -7 12 -12 21 -12 19 2 21 -22 2 -33 -7 -4 -31 -23 -52 -40 -126 -105
-269 -213 -280 -213 -8 0 -14 5 -14 10 0 13 -51 -13 -69 -34 -11 -13 -11 -19
-1 -31 11 -13 10 -18 -9 -31 -12 -9 -48 -37 -80 -62 -80 -63 -101 -77 -113
-74 -5 1 -7 -2 -4 -6 5 -9 -64 -67 -239 -202 -38 -30 -72 -57 -75 -60 -3 -3
-25 -21 -50 -40 -25 -19 -52 -40 -60 -47 -68 -55 -216 -172 -300 -238 -57 -44
-108 -85 -114 -91 -6 -5 -27 -21 -47 -35 -20 -13 -53 -38 -75 -56 -21 -17 -77
-61 -124 -97 -47 -36 -92 -71 -100 -78 -8 -8 -46 -36 -84 -63 -37 -28 -85 -64
-105 -81 -77 -66 -294 -198 -344 -210 -46 -11 -37 -14 -204 62 -28 13 -56 24
-62 24 -5 0 -11 3 -13 8 -1 4 -70 41 -153 83 -178 90 -369 190 -445 232 -30
16 -86 46 -125 65 -38 20 -72 38 -75 42 -3 3 -39 23 -80 44 -159 84 -208 109
-285 151 -44 24 -100 54 -125 67 -25 14 -72 39 -105 58 -33 19 -85 47 -115 63
-30 16 -86 46 -125 68 -38 22 -83 45 -98 51 -17 6 -26 16 -23 24 3 8 0 11 -8
8 -15 -6 -92 31 -103 50 -10 15 -11 216 -2 216 4 0 2 16 -4 35 -6 19 -14 35
-19 35 -5 0 -14 13 -19 29 -11 31 -24 38 -128 69 l-63 19 58 39 c134 89 219
149 222 157 2 4 8 7 14 7 6 0 38 22 72 49 34 26 73 54 86 61 14 7 59 38 100
69 41 31 86 64 100 73 48 32 238 163 261 181 13 10 128 90 254 178 127 88 247
174 267 190 20 16 40 29 43 29 4 0 36 21 72 48 36 26 69 46 74 44 5 -1 9 2 9
7 0 4 35 32 78 61 42 29 109 76 147 105 96 72 205 145 214 145 4 0 16 -9 26
-20z m-1371 -498 c3 -5 6 -76 7 -158 l1 -149 -142 -9 c-80 -5 -145 -5 -150 0
-4 5 -9 77 -11 159 l-4 150 85 6 c142 9 209 9 214 1z m125 -141 c15 -11 44
-22 65 -26 l38 -8 -38 -31 c-53 -43 -117 -86 -130 -86 -11 0 -26 153 -17 177
6 14 41 3 82 -26z m4070 -17 c44 -9 39 -32 -14 -77 -54 -46 -59 -66 -9 -32 44
30 51 31 57 8 40 -149 40 -148 21 -188 -21 -45 -68 -76 -109 -73 -24 2 -34 11
-50 45 -11 23 -25 41 -32 38 -16 -5 -27 90 -19 159 8 57 31 89 84 112 34 15
33 15 71 8z m-6081 -55 c26 -12 85 -40 132 -61 47 -22 95 -44 108 -49 27 -10
29 -35 3 -42 -25 -6 -222 79 -257 112 -70 65 -66 76 14 40z m5998 -420 c7 -12
-63 -88 -83 -89 -6 0 -13 -4 -15 -9 -1 -4 -43 -42 -93 -82 -49 -40 -103 -86
-119 -101 -50 -45 -74 -54 -93 -35 -9 9 -15 18 -12 20 84 66 221 174 274 217
115 92 128 100 141 79z m238 -75 c20 -76 20 -117 2 -152 -19 -36 -125 -127
-135 -116 -5 5 -16 56 -26 114 l-18 105 39 30 c21 16 54 44 73 62 20 17 39 29
43 25 3 -4 14 -35 22 -68z m-6657 -111 c43 -65 80 -122 82 -127 9 -21 141
-215 150 -220 15 -10 2 -36 -18 -36 -11 0 -33 27 -60 73 -74 125 -83 141 -123
199 -21 32 -38 60 -38 64 0 3 -20 37 -45 75 -25 38 -45 74 -45 79 0 29 28 -2
97 -107z m3 108 c19 -5 47 -12 61 -15 25 -5 26 -8 21 -55 -4 -42 0 -58 23 -98
65 -113 186 -231 268 -262 20 -8 30 -5 54 19 16 16 34 26 40 22 14 -9 66 -113
60 -119 -5 -4 -216 50 -271 70 -20 7 -49 42 -104 126 -41 64 -104 160 -138
214 -35 53 -64 99 -64 102 0 7 10 6 50 -4z m6430 -108 c0 -16 -32 -45 -142
-133 -18 -14 -48 -39 -68 -55 -19 -17 -87 -72 -152 -122 -64 -51 -127 -101
-140 -112 -12 -11 -62 -51 -109 -88 -127 -101 -383 -307 -389 -313 -3 -3 -32
-27 -65 -52 -33 -25 -86 -70 -118 -99 l-58 -54 11 -60 c6 -33 16 -72 22 -88 9
-23 7 -31 -8 -49 -31 -34 -500 -408 -513 -408 -7 0 -12 22 -13 58 -2 76 -13
132 -25 132 -7 0 -79 -53 -158 -115 -176 -138 -344 -250 -357 -237 -16 16 3
37 70 81 82 55 284 203 333 245 20 17 47 40 60 50 13 10 32 26 42 34 15 14 19
13 37 -3 18 -16 21 -17 44 -1 14 9 38 16 54 16 22 0 35 8 53 35 19 28 31 35
56 35 27 0 45 13 112 83 120 124 123 128 108 166 -14 39 -26 39 -54 -2 -13
-17 -23 -25 -23 -17 0 8 -24 -10 -53 -40 -29 -31 -67 -62 -84 -69 -41 -17 -67
-46 -59 -66 3 -9 2 -14 -3 -11 -10 7 -54 -11 -94 -38 -40 -27 -45 -13 -5 15
18 13 50 41 70 61 21 21 40 38 44 38 4 0 22 15 40 33 35 33 156 142 212 189
22 18 57 38 67 38 3 0 3 -9 0 -21 -6 -19 -5 -19 16 -7 25 15 327 252 494 388
61 50 182 147 270 217 88 69 166 132 173 140 7 7 16 13 20 13 4 0 23 15 42 33
19 17 73 61 120 97 47 35 87 68 88 72 7 15 32 8 32 -9z m-5763 -265 c77 -112
142 -208 146 -215 10 -16 -2 -43 -19 -43 -15 0 -117 141 -228 314 -63 98 -74
121 -65 137 5 11 14 17 19 14 4 -3 71 -96 147 -207z m-24 185 c32 -6 44 -20
28 -36 -48 -48 101 -256 249 -346 44 -27 68 -27 97 1 26 24 28 23 67 -44 18
-32 22 -48 14 -48 -7 0 -69 17 -138 38 l-124 37 -64 95 c-36 52 -98 144 -138
203 -41 59 -74 111 -74 114 0 3 12 2 28 -1 15 -4 39 -10 55 -13z m5294 -119
c2 -14 -44 -56 -171 -158 -96 -76 -186 -149 -200 -162 -14 -13 -30 -24 -35
-24 -6 0 -14 -6 -18 -13 -4 -7 -36 -35 -71 -62 -35 -28 -77 -63 -95 -78 -18
-16 -57 -47 -87 -70 -30 -23 -66 -52 -80 -65 -14 -13 -67 -56 -119 -95 -52
-40 -106 -83 -120 -96 -14 -13 -82 -67 -151 -121 -69 -54 -134 -107 -145 -117
-26 -24 -172 -137 -310 -241 -110 -82 -166 -115 -217 -127 -35 -9 -37 9 -4 27
47 26 153 103 249 182 54 45 118 97 141 116 24 19 123 99 222 178 98 79 188
151 199 160 20 17 248 199 315 252 65 51 195 155 215 172 11 9 101 80 200 159
99 78 198 157 220 175 43 36 59 38 62 8z m-4194 -158 c5 -87 5 -162 0 -166 -4
-4 -82 -9 -173 -11 l-165 -4 -9 158 c-5 86 -6 160 -3 163 7 7 222 22 292 20
l50 -1 8 -159z m255 -286 c97 -53 218 -118 267 -145 50 -26 104 -56 120 -65
17 -10 62 -34 100 -55 39 -21 97 -52 130 -70 121 -66 313 -169 415 -222 58
-31 143 -76 190 -101 350 -187 557 -290 651 -323 l65 -23 23 -100 c13 -56 27
-112 31 -126 7 -19 30 -132 30 -145 0 -1 -19 -3 -42 -3 -53 -1 -126 31 -156
69 -26 32 -72 156 -72 193 0 27 -10 34 -145 106 -44 24 -120 67 -170 96 -49
28 -124 70 -165 92 -41 21 -91 48 -110 59 -19 11 -76 42 -125 68 -50 26 -108
58 -130 70 -22 12 -80 43 -130 70 -49 26 -94 51 -100 55 -5 4 -53 30 -105 57
-52 28 -124 66 -160 85 -36 20 -105 57 -155 83 -49 27 -121 66 -160 87 -38 21
-89 48 -112 59 -24 12 -43 25 -43 30 0 5 -8 9 -18 9 -10 0 -53 20 -96 45 -44
25 -85 45 -93 45 -26 0 -12 -19 30 -43 70 -41 339 -193 387 -220 38 -21 242
-137 348 -198 18 -10 92 -51 165 -90 72 -40 157 -85 187 -102 30 -16 111 -59
180 -94 323 -169 522 -278 544 -298 22 -21 74 -160 63 -171 -2 -3 -26 5 -53
16 -125 53 -868 435 -1049 539 -38 22 -90 51 -115 65 -25 13 -101 63 -170 110
-262 178 -318 215 -399 260 -46 25 -87 46 -92 46 -5 0 -45 24 -89 53 -71 47
-81 57 -99 105 -12 30 -21 56 -21 58 0 3 42 5 93 4 180 -2 187 -1 151 34 -18
18 -10 38 12 29 8 -3 95 -49 192 -103z m-2781 -232 c75 -47 93 -85 69 -141
-20 -49 -59 -73 -91 -59 -33 15 -33 42 -1 42 41 0 56 11 56 39 0 55 -53 69
-96 25 -22 -21 -25 -31 -19 -62 9 -51 38 -87 82 -105 46 -18 77 -50 98 -99 37
-90 3 -167 -69 -155 -20 3 -55 19 -79 36 -81 56 -110 158 -121 424 l-6 159 57
-33 c32 -18 86 -50 120 -71z m7136 -184 c62 -20 121 -40 132 -45 11 -5 43 -17
70 -27 60 -21 68 -48 15 -46 -41 1 -319 90 -338 108 -11 11 -8 46 5 46 3 0 55
-16 116 -36z m-128 -129 c107 -39 126 -49 124 -65 -3 -31 2 -37 41 -49 33 -10
44 -9 63 4 20 13 26 13 35 2 17 -20 -13 -57 -44 -57 -14 0 -56 14 -94 30 -38
17 -71 30 -75 30 -3 0 -25 8 -48 18 -23 10 -61 27 -84 37 -46 20 -49 25 -31
55 16 26 29 25 113 -5z m-4600 -420 c22 -4 55 -18 73 -31 52 -40 47 -66 -83
-361 -8 -18 -21 -48 -29 -65 -8 -18 -26 -59 -40 -90 -14 -31 -26 -59 -26 -61
0 -3 -18 -45 -41 -94 -22 -48 -47 -101 -54 -118 -16 -36 -43 -97 -84 -188 -17
-38 -31 -70 -31 -72 0 -2 -16 -38 -35 -79 -19 -42 -35 -79 -35 -82 0 -7 -12
-34 -69 -157 -23 -49 -41 -91 -41 -94 0 -3 -16 -40 -36 -82 -20 -42 -47 -103
-61 -136 -14 -33 -38 -88 -54 -123 -16 -35 -29 -65 -29 -67 0 -3 -34 -80 -86
-193 -13 -29 -24 -55 -24 -57 0 -6 -77 -174 -90 -197 -6 -10 -10 -23 -10 -30
0 -7 -7 -21 -15 -31 -13 -18 -16 -18 -102 3 -48 12 -103 28 -122 36 -32 14
-33 16 -28 57 3 23 18 69 32 102 15 33 36 83 47 110 12 28 30 70 41 95 10 25
22 54 27 65 4 11 19 45 33 76 14 30 35 80 47 110 11 30 29 72 40 94 11 22 38
83 60 135 23 52 48 109 55 125 8 17 23 53 34 80 10 28 32 79 49 115 50 109 70
154 90 206 11 27 38 88 61 136 23 48 41 91 41 97 0 15 34 85 43 89 4 2 7 10 7
17 0 7 13 40 29 72 16 33 33 71 36 86 4 15 11 30 16 33 5 3 9 16 9 30 0 16 4
23 11 18 8 -5 10 3 7 24 -3 20 0 28 8 25 11 -4 44 63 44 92 0 8 5 15 10 15 6
0 10 6 10 13 0 6 11 34 25 61 13 27 22 53 19 58 -3 4 0 8 5 8 6 0 11 7 11 15
0 8 5 15 10 15 6 0 10 7 10 16 0 19 63 76 93 85 12 4 29 5 37 4 8 -2 33 -6 55
-10z m275 -64 c30 -12 161 -49 290 -82 129 -33 260 -68 290 -76 30 -8 82 -21
115 -29 33 -7 121 -29 195 -48 74 -20 144 -38 155 -41 575 -141 861 -211 1135
-274 306 -72 304 -71 284 -91 -8 -8 -30 -7 -80 4 -74 16 -337 80 -394 96 -60
16 -202 51 -270 66 -36 8 -81 19 -100 24 -60 15 -173 41 -219 51 -24 5 -73 17
-110 28 -36 10 -174 44 -306 75 -132 31 -265 63 -295 71 -93 25 -450 111 -535
130 -44 9 -88 21 -97 26 -45 23 -62 12 -92 -58 -16 -38 -40 -93 -54 -123 -13
-30 -33 -77 -44 -105 -10 -27 -35 -83 -54 -122 -18 -40 -34 -76 -34 -79 0 -6
-12 -34 -54 -127 -14 -32 -26 -61 -26 -65 0 -5 -11 -30 -24 -58 -13 -27 -38
-85 -56 -129 -18 -44 -37 -84 -41 -90 -5 -5 -9 -15 -9 -22 0 -7 -11 -36 -24
-65 -60 -135 -86 -195 -86 -201 0 -3 -13 -34 -29 -69 -16 -35 -54 -122 -84
-193 -30 -72 -64 -152 -76 -177 -11 -26 -21 -54 -21 -62 0 -9 -3 -16 -8 -16
-4 0 -12 -15 -18 -32 -9 -27 -111 -269 -169 -403 -51 -117 -54 -124 -42 -133
7 -5 91 -28 187 -51 96 -23 186 -46 200 -51 14 -5 37 -11 53 -14 42 -10 33
-21 -27 -36 -53 -12 -60 -11 -263 40 -204 52 -227 61 -307 124 -22 18 -20 25
75 234 16 34 29 64 29 66 0 2 15 37 34 78 19 40 46 102 61 138 15 36 43 98 61
138 19 41 34 75 34 77 0 2 15 36 34 77 18 40 43 96 55 123 13 28 28 64 36 80
7 17 47 109 90 205 42 96 87 199 101 228 13 29 24 54 24 57 0 2 15 36 34 77
18 40 48 107 66 148 17 41 47 108 66 148 19 40 34 75 34 78 0 3 14 35 30 71
17 35 30 66 30 68 0 3 37 86 85 190 12 28 31 69 41 93 21 50 28 50 124 13z
m3830 -158 c107 -60 145 -98 195 -195 17 -35 10 -35 -46 0 -24 15 -56 33 -71
41 -16 8 -28 18 -28 23 0 4 -7 8 -16 8 -9 0 -28 8 -42 18 -42 27 -64 39 -109
63 -24 13 -43 26 -43 30 0 3 12 11 28 17 59 23 84 22 132 -5z m-101 -68 c51
-30 97 -55 101 -55 4 0 15 -9 25 -20 10 -11 22 -20 26 -20 5 0 42 -20 81 -45
l73 -45 6 -53 c3 -28 3 -56 -1 -60 -4 -4 -45 18 -91 50 -46 32 -102 68 -124
79 -36 20 -40 26 -43 64 -3 34 -6 41 -20 35 -32 -13 -84 -18 -91 -9 -7 11 -74
50 -120 70 -39 18 -32 32 27 50 54 17 49 18 151 -41z m-126 -55 c33 -18 55
-36 50 -41 -5 -5 -30 -15 -55 -23 -44 -13 -49 -12 -85 9 -21 13 -58 34 -83 48
-24 13 -46 29 -47 34 -2 6 20 17 49 25 49 14 55 14 83 -2 17 -9 56 -32 88 -50z
m-164 -29 c91 -53 91 -54 9 -80 -34 -11 -41 -10 -85 16 -26 15 -65 37 -86 49
-22 11 -40 24 -40 29 -2 10 65 33 98 34 11 0 58 -21 104 -48z m-199 -11 c14
-11 29 -20 33 -20 18 0 98 -63 90 -70 -4 -4 -29 -13 -55 -20 -44 -12 -49 -11
-95 15 -26 15 -65 37 -86 48 -20 12 -36 25 -34 31 3 10 70 33 102 35 11 0 31
-8 45 -19z m-93 -72 c37 -23 70 -44 73 -46 10 -8 -33 -31 -71 -37 -35 -6 -49
-1 -124 42 -47 26 -85 51 -85 54 0 10 95 38 117 33 12 -2 53 -23 90 -46z
m-152 -39 c48 -28 83 -55 78 -59 -4 -4 -29 -14 -54 -23 l-46 -15 -82 48 c-46
26 -83 51 -83 56 0 8 73 42 94 43 3 1 45 -22 93 -50z m920 -40 c61 -39 116
-78 123 -87 12 -16 18 -122 6 -122 -10 0 -122 81 -156 113 -10 9 -23 17 -29
17 -6 0 -26 12 -45 26 -31 24 -34 31 -34 75 0 33 4 49 13 49 7 0 62 -32 122
-71z m-1060 -5 c42 -25 74 -51 72 -57 -1 -5 -25 -16 -53 -23 l-49 -12 -82 46
c-45 26 -83 52 -83 58 0 11 58 30 97 33 12 0 56 -20 98 -45z m-145 -41 c44
-27 79 -51 80 -55 1 -31 -172 -6 -238 34 -39 24 -37 37 9 54 54 20 65 17 149
-33z m1120 -38 c22 -14 40 -30 40 -35 0 -6 6 -10 13 -10 7 0 48 -26 90 -57
l77 -57 0 -70 0 -69 -27 24 c-15 13 -30 26 -33 29 -14 14 -130 100 -167 125
-43 27 -43 28 -43 86 0 33 2 59 5 59 3 0 23 -11 45 -25z m-4651 -59 c-12 -26
-44 -68 -72 -94 -127 -119 -119 -115 -115 -53 3 51 5 54 72 114 68 61 128 99
134 86 2 -4 -7 -28 -19 -53z m4738 -152 c131 -99 145 -112 140 -128 -10 -27
-182 21 -239 66 -36 30 -38 34 -38 90 0 36 4 58 11 58 7 0 63 -39 126 -86z
m-6497 -331 c-86 -90 -89 -91 -148 -103 -32 -6 -65 -14 -74 -16 -27 -8 -22 15
5 25 13 5 32 22 42 38 10 15 29 36 42 47 13 10 21 21 18 24 -7 7 109 39 145
41 22 1 19 -4 -30 -56z m1304 -163 c5 -5 17 -10 26 -10 20 -1 90 -90 89 -115
0 -11 -19 -58 -42 -105 -47 -94 -51 -96 -132 -64 -151 59 -255 138 -255 194 0
36 59 88 110 95 19 3 49 10 65 15 36 11 124 5 139 -10z m-815 -199 c28 6 75 9
104 6 65 -6 165 -31 180 -46 6 -6 17 -11 25 -11 22 0 133 -83 186 -138 44 -46
51 -49 78 -41 61 17 123 -11 161 -73 16 -26 17 -35 7 -57 -12 -25 -13 -25 -22
-6 -10 23 -100 68 -125 63 -14 -3 -15 -5 -2 -18 19 -20 49 -86 49 -108 0 -27
21 -44 37 -31 10 9 13 8 13 -2 0 -23 -37 -113 -48 -117 -5 -1 -13 20 -17 49
-7 51 -18 84 -55 166 -19 41 -33 56 -58 59 -8 2 -21 5 -29 8 -14 6 -14 9 2 26
17 19 15 21 -46 79 -111 104 -255 163 -387 160 -70 -2 -80 -5 -108 -32 -30
-27 -33 -28 -42 -11 -10 17 -12 17 -66 -1 -31 -11 -56 -23 -56 -27 0 -5 12
-27 26 -50 29 -46 26 -61 -23 -119 -16 -19 -37 -45 -46 -59 -90 -132 -99 -141
-172 -164 -68 -21 -70 -22 -77 -61 -4 -22 -7 -55 -7 -73 -1 -30 1 -32 25 -26
l26 7 -23 -41 c-19 -33 -21 -44 -11 -54 9 -9 12 -8 12 8 0 10 12 37 25 59 22
35 33 43 105 66 44 14 82 24 84 21 5 -4 -89 -158 -112 -185 -8 -9 -33 -22 -54
-29 -30 -9 -37 -15 -32 -30 6 -21 -15 -24 -47 -7 -14 7 -18 16 -14 30 4 10 -1
29 -9 41 -15 21 -16 21 -16 3 -1 -30 -24 -55 -53 -55 -21 0 -26 5 -29 28 -7
62 2 83 47 103 l43 19 4 68 c4 80 1 99 -16 79 -10 -13 -126 -57 -148 -57 -10
0 18 58 37 77 7 7 23 29 36 50 13 21 48 72 79 113 30 41 69 95 85 120 36 55
167 220 174 220 4 0 17 -16 30 -35 13 -19 27 -35 31 -35 23 0 100 43 100 56 0
8 8 26 18 39 l17 25 26 -30 c25 -30 27 -30 78 -19z m-112 -279 c23 -42 24 -45
7 -63 -9 -10 -22 -29 -28 -40 -8 -15 -35 -29 -86 -45 -41 -13 -76 -24 -77 -24
-15 0 31 84 67 122 8 9 26 35 40 57 13 23 31 40 39 39 8 -2 25 -23 38 -46z
m263 -56 c36 -54 37 -65 5 -100 -14 -15 -25 -30 -25 -33 0 -4 -26 -46 -57 -95
-39 -58 -67 -91 -85 -98 -16 -5 -42 -15 -58 -21 -41 -16 -31 -23 14 -11 46 13
53 1 21 -36 -14 -16 -25 -36 -25 -44 0 -24 -35 -49 -97 -68 -76 -24 -93 -15
-52 28 11 12 18 26 14 31 -7 12 41 69 57 67 7 0 14 4 14 9 1 6 -2 9 -7 7 -19
-5 -8 26 32 89 23 35 47 72 53 82 6 11 47 31 91 46 43 15 80 32 82 38 2 5 -8
26 -22 47 -14 20 -25 41 -25 47 0 10 30 59 36 59 2 0 17 -20 34 -44z m84 -130
c32 -55 32 -57 0 -95 -18 -22 -45 -36 -93 -51 -82 -24 -85 -24 -77 -5 12 33
130 204 137 200 4 -3 19 -25 33 -49z m-304 -63 c0 -5 -9 -19 -20 -33 -11 -14
-20 -28 -20 -31 0 -4 -18 -34 -40 -67 -38 -57 -44 -61 -115 -85 -41 -14 -77
-21 -80 -17 -4 7 70 139 85 150 3 3 9 13 13 22 3 10 36 27 84 42 87 28 93 29
93 19z m260 -96 c0 -7 -8 -22 -18 -33 -10 -10 -24 -34 -31 -52 -8 -18 -22 -37
-33 -43 -16 -9 -135 -49 -144 -49 -12 0 -1 32 19 57 12 15 28 40 34 55 10 22
27 31 90 51 43 14 79 25 81 26 1 1 2 -5 2 -12z m400 -74 c0 -4 -10 -31 -22
-60 -17 -41 -30 -57 -60 -73 -21 -11 -47 -20 -58 -20 -29 0 -24 -23 10 -48 24
-18 28 -26 21 -45 -5 -12 -13 -21 -18 -20 -5 1 -9 -8 -9 -19 1 -12 -5 -23 -13
-26 -8 -2 -11 0 -8 5 3 5 -6 8 -24 5 -16 -2 -29 -9 -29 -14 0 -6 -7 -8 -15 -4
-8 3 -15 2 -15 -3 0 -5 18 -11 40 -15 22 -3 40 -11 40 -16 0 -19 37 13 61 52
13 22 32 44 42 49 9 5 17 19 17 30 0 12 4 17 11 13 7 -4 9 -21 6 -40 -4 -20 0
-45 9 -62 14 -27 18 -52 9 -52 -3 0 -17 7 -30 16 -28 18 -66 11 -47 -8 15 -15
16 -31 1 -23 -5 4 -18 0 -27 -8 -9 -8 -24 -17 -32 -20 -12 -4 -12 -6 2 -6 9
-1 20 4 23 9 9 15 36 12 57 -7 21 -19 24 -56 5 -72 -8 -6 -19 -29 -26 -50 -15
-53 -28 -59 -56 -26 -15 16 -32 26 -47 25 -13 -1 -26 -2 -31 -1 -4 1 6 28 23
61 19 37 25 57 16 54 -8 -3 -27 -34 -42 -69 -16 -36 -33 -65 -38 -65 -4 0 -23
12 -41 28 -17 15 -40 32 -50 37 -17 10 -16 13 8 38 15 17 28 24 32 17 13 -21
24 -9 18 23 -4 27 -1 35 19 45 12 7 15 10 6 8 -24 -7 -22 11 7 59 45 75 55 99
47 107 -5 5 -17 0 -28 -9 -19 -18 -64 -97 -64 -114 0 -6 -16 -33 -35 -62 -19
-28 -35 -57 -35 -64 0 -21 -36 -15 -68 12 l-30 25 37 72 c20 40 38 75 41 78 3
3 15 23 26 45 13 24 30 41 43 43 12 2 19 8 16 13 -4 5 5 5 20 -1 16 -6 24 -6
20 0 -8 14 27 29 55 23 19 -3 43 9 100 52 41 32 79 63 83 71 8 15 27 19 27 7z
m-416 -220 c-15 -26 -37 -66 -48 -88 -12 -22 -24 -41 -28 -43 -5 -2 -8 -10 -8
-19 0 -12 -7 -10 -37 8 -56 33 -58 36 -40 57 9 10 17 26 17 35 0 9 5 17 10 17
6 0 10 7 10 15 0 9 12 20 28 27 70 28 117 45 120 42 2 -1 -9 -24 -24 -51z
m515 -44 c14 1 21 -1 17 -7 -3 -6 4 -14 16 -18 13 -4 27 -12 31 -18 5 -6 5 0
2 13 -7 23 -6 24 30 18 21 -3 45 -13 55 -22 13 -12 19 -13 22 -4 5 16 57 -20
58 -40 0 -9 8 -12 25 -9 14 3 25 1 25 -3 0 -5 10 -9 23 -9 13 0 27 -4 33 -10
10 -10 170 -49 237 -57 46 -6 59 -23 18 -23 -17 0 -31 -4 -31 -8 0 -4 -21 -14
-47 -21 -27 -8 -67 -20 -90 -28 -38 -12 -49 -12 -88 2 -25 8 -57 15 -70 15
-14 0 -25 4 -25 9 0 8 -65 22 -102 22 -10 0 -18 4 -18 10 0 5 -13 9 -28 9 -30
0 -82 20 -82 33 0 4 -6 7 -14 7 -23 0 -33 22 -40 88 -4 49 -3 61 7 55 6 -4 23
-6 36 -4z m116 -230 c5 -5 21 -9 36 -9 15 0 30 -4 34 -9 3 -5 30 -13 60 -16
58 -8 76 -25 25 -25 -16 0 -30 -4 -30 -8 0 -5 -21 -14 -47 -21 -99 -26 -96
-26 -123 21 -14 24 -28 53 -31 64 -6 20 -3 21 30 17 20 -3 40 -9 46 -14z
m-722 -116 c23 -15 43 -28 45 -29 9 -5 -41 -72 -51 -68 -8 3 -13 -6 -15 -21
-1 -15 2 -24 8 -20 16 10 12 -12 -10 -52 -16 -31 -29 -40 -77 -55 -32 -10 -61
-17 -65 -15 -3 1 2 19 12 40 10 21 18 40 18 43 0 2 2 14 5 26 4 15 11 19 23
14 12 -5 25 2 41 20 25 30 28 49 13 90 -10 26 -7 54 5 54 3 0 24 -12 48 -27z
m2777 -83 c19 -5 62 -16 95 -24 33 -8 168 -42 299 -75 132 -34 248 -61 258
-61 12 0 27 19 46 57 l29 56 7 -50 c9 -67 -2 -111 -31 -130 -28 -18 5 -25
-466 96 -152 39 -286 76 -296 83 -11 7 -25 23 -32 37 -8 15 -15 29 -17 33 -2
3 14 2 35 -4 21 -5 54 -13 73 -18z m-909 -351 c16 -11 56 -56 90 -100 52 -69
64 -79 91 -79 39 0 26 -17 -16 -22 -26 -3 -39 8 -109 87 -44 50 -86 91 -93 93
-8 2 -69 -15 -135 -37 -67 -23 -130 -41 -140 -41 -9 0 -38 -9 -64 -20 l-46
-20 75 -92 c42 -51 76 -95 76 -98 0 -3 -39 -19 -87 -35 -50 -16 -100 -41 -119
-58 -19 -16 -45 -32 -59 -35 -26 -7 -25 -9 66 -126 50 -65 99 -120 107 -123 8
-4 54 6 101 22 47 15 105 34 129 41 23 8 51 14 62 14 27 0 71 -42 133 -125 39
-53 59 -71 80 -73 26 -3 141 26 274 69 l62 20 -5 43 c-5 32 -2 45 11 56 15 13
20 11 41 -13 48 -56 37 -113 -29 -145 -79 -38 -323 -112 -373 -112 -31 0 -82
46 -145 131 l-52 70 -40 -7 c-22 -3 -77 -20 -121 -37 -118 -43 -134 -44 -179
-7 -34 29 -165 202 -195 260 -28 53 -6 72 163 135 38 15 73 29 77 31 9 6 -22
74 -34 74 -4 0 -19 24 -33 54 -26 56 -24 88 6 112 28 21 201 73 329 99 36 7
67 14 68 14 2 1 17 -8 33 -20z m-1281 -39 c27 -52 26 -86 -3 -105 -30 -20
-240 -91 -502 -170 -49 -15 -95 -32 -102 -37 -14 -11 -21 11 -25 77 l-3 40
-74 5 -74 5 49 14 c27 8 60 20 74 28 14 7 35 13 48 13 12 0 30 4 40 9 9 5 69
24 132 42 63 18 119 36 125 41 5 4 17 8 26 8 17 0 107 25 144 40 98 40 120 39
145 -10z m1859 -175 c14 -17 48 -59 74 -93 79 -104 80 -131 9 -157 -26 -9 -56
-20 -67 -25 -11 -4 -53 -19 -93 -31 l-74 -23 -19 24 c-24 33 -16 38 111 81
l99 33 -3 52 c-2 44 -9 60 -42 101 -57 68 -84 109 -84 125 1 12 19 -6 89 -87z
m-1707 -48 c31 -36 54 -97 45 -121 -10 -25 -145 -83 -297 -127 -41 -12 -111
-34 -155 -49 -78 -26 -134 -44 -300 -94 -236 -72 -346 -105 -405 -121 -36 -10
-85 -24 -110 -32 -39 -13 -184 -50 -262 -67 -36 -8 -77 27 -108 94 -35 75 -29
80 150 138 175 55 180 56 214 42 41 -18 191 -25 238 -10 21 6 67 31 103 55 36
25 71 45 78 45 21 0 37 22 37 50 0 23 8 28 108 59 215 69 345 110 527 165 66
20 103 13 137 -27z m174 -232 c36 -39 64 -89 64 -116 0 -21 -62 -64 -107 -75
-15 -4 -116 -36 -223 -71 -224 -73 -343 -111 -450 -143 -41 -12 -93 -28 -115
-35 -45 -14 -113 -34 -225 -66 -41 -11 -84 -24 -95 -29 -11 -4 -65 -20 -120
-34 -55 -15 -115 -31 -133 -37 -76 -25 -123 -8 -166 59 -55 84 -36 108 124
156 30 9 105 31 165 50 242 75 411 128 435 136 14 5 72 23 130 40 58 18 127
40 154 51 27 10 54 19 60 19 9 0 244 73 371 116 67 22 94 18 131 -21z m190
-270 c44 -47 198 -244 213 -273 29 -54 16 -60 -469 -217 -113 -36 -293 -95
-400 -130 -490 -160 -555 -179 -610 -179 -42 -1 -63 5 -87 22 -31 22 -131 164
-192 274 l-32 57 43 20 c44 21 175 65 418 141 74 23 153 47 175 55 22 7 81 25
130 40 50 15 122 38 160 51 72 23 178 56 325 100 47 15 117 37 155 49 102 34
131 32 171 -10z m4298 -81 c12 -11 16 -36 16 -99 l0 -83 -72 -7 c-40 -4 -91
-5 -113 -3 l-40 3 -3 91 -3 92 88 9 c48 6 93 11 100 12 6 0 19 -6 27 -15z
m-734 -78 c0 -7 -26 -37 -57 -67 -32 -29 -146 -137 -253 -240 -107 -103 -211
-200 -230 -215 -19 -16 -42 -37 -52 -46 -10 -10 -30 -18 -45 -18 -32 0 -6 26
499 508 91 86 138 113 138 78z m-3218 -303 c10 -9 18 -22 18 -30 0 -7 5 -13
11 -13 29 0 -16 -29 -69 -44 -31 -10 -66 -21 -77 -26 -20 -8 -305 -99 -460
-147 -44 -13 -89 -28 -100 -33 -11 -5 -67 -23 -125 -40 -58 -18 -130 -41 -160
-52 -30 -11 -66 -22 -80 -25 -14 -3 -29 -9 -35 -13 -5 -5 -31 -11 -57 -15 -27
-4 -48 -11 -48 -16 0 -5 -8 -9 -18 -9 -10 0 -50 -11 -88 -24 -135 -48 -274
-88 -287 -83 -20 7 -51 72 -44 91 10 24 83 52 307 117 89 26 226 68 370 114
63 21 131 41 150 45 19 5 60 17 90 28 51 19 103 35 453 143 72 22 137 42 142
44 28 10 90 3 107 -12z m2818 -462 c0 -11 5 -23 10 -26 6 -3 10 -44 10 -91 0
-71 3 -86 18 -91 33 -12 45 -48 12 -38 -17 5 -20 2 -22 -22 0 -15 -2 -35 -2
-43 -1 -8 -10 -14 -19 -14 -17 2 -17 1 -1 -17 9 -10 26 -21 38 -25 23 -7 61
-42 53 -50 -2 -2 -39 14 -83 37 l-78 41 -96 -5 c-54 -4 -104 -9 -112 -12 -8
-3 -25 2 -37 12 -20 17 -22 29 -28 179 l-6 161 109 10 c60 6 137 11 172 11 55
2 62 0 62 -17z m1236 -151 c30 0 37 -5 48 -32 13 -30 6 -90 -12 -110 -7 -7
-58 -12 -259 -24 l-113 -7 -1 34 c-1 19 -3 54 -4 79 l-2 45 46 2 c117 5 227
16 241 24 8 4 16 4 18 -2 2 -5 19 -9 38 -9z m804 -390 c3 -3 13 -17 23 -32 10
-17 32 -31 56 -38 60 -16 66 -62 10 -74 -37 -7 -80 13 -108 52 -21 31 -38 120
-27 149 6 15 10 12 24 -17 9 -19 19 -37 22 -40z m-880 -118 c0 -10 -211 -221
-233 -233 -11 -7 -46 9 -124 55 -59 35 -142 83 -183 107 -105 61 -64 63 47 3
86 -46 129 -72 205 -122 l38 -25 74 67 c42 37 92 87 113 112 35 40 63 56 63
36z"/>
<path d="M1745 11719 c-27 -3 -66 -13 -86 -22 -30 -12 -37 -21 -42 -53 -12
-68 -9 -91 12 -97 19 -5 19 -6 0 -87 -19 -83 -18 -110 5 -91 7 6 25 9 42 8 29
-2 29 -1 53 96 l23 98 49 -2 c27 -2 53 2 58 7 13 15 34 125 24 134 -13 12 -83
17 -138 9z"/>
<path d="M1951 11614 c-11 -31 -21 -61 -21 -67 0 -7 20 -25 45 -40 25 -16 45
-32 45 -37 0 -7 -38 -59 -85 -118 -29 -35 -27 -62 4 -62 11 0 35 -19 54 -42
42 -51 45 -49 107 57 25 41 50 75 56 75 6 0 30 -20 53 -45 44 -48 55 -53 74
-32 7 7 27 29 46 49 l33 36 -48 52 c-78 83 -289 230 -331 230 -6 0 -20 -25
-32 -56z"/>
<path d="M2388 11235 c-43 -32 -62 -67 -40 -77 11 -5 62 -75 62 -86 0 -6 -40
-31 -90 -56 -49 -26 -90 -53 -90 -60 0 -6 11 -27 24 -45 13 -18 27 -47 30 -66
4 -19 11 -37 16 -40 5 -3 27 6 49 20 23 14 43 25 46 25 3 0 22 10 43 23 66 41
69 41 88 -14 25 -68 32 -72 90 -53 74 25 76 28 53 82 -67 158 -197 382 -221
382 -7 0 -34 -16 -60 -35z"/>
<path d="M2642 10700 c-52 -8 -58 -16 -67 -87 l-6 -53 -72 -2 c-40 -1 -79 -2
-87 -4 -8 -1 -19 -2 -25 -3 -5 -1 -10 -20 -11 -43 0 -24 -2 -50 -5 -58 -5 -17
37 -19 128 -5 l51 8 -1 -34 c-2 -32 -1 -33 53 -46 66 -15 74 -13 95 27 19 37
44 159 39 192 -2 13 -6 44 -9 71 -7 51 -5 50 -83 37z"/>
<path d="M2276 9115 c4 -9 0 -15 -10 -15 -9 0 -16 5 -16 12 0 21 -56 -41 -68
-77 -11 -29 -11 -38 4 -60 33 -50 106 -48 149 4 52 63 57 100 19 130 -32 25
-86 29 -78 6z"/>
<path d="M4490 8594 c-50 -5 -193 -36 -205 -45 -5 -3 -25 -10 -42 -14 -76 -16
-256 -120 -315 -182 -15 -15 -43 -55 -62 -87 -32 -53 -36 -68 -36 -128 0 -75
20 -119 83 -179 45 -44 155 -106 200 -114 20 -4 37 -10 37 -14 0 -10 3 -10
175 -17 143 -6 165 -3 265 25 19 5 59 16 87 24 87 25 223 96 223 117 0 15 -19
12 -48 -8 -15 -10 -47 -26 -72 -36 -25 -10 -53 -22 -62 -27 -10 -5 -27 -9 -38
-9 -11 0 -20 -4 -20 -10 0 -5 -9 -10 -21 -10 -11 0 -30 -5 -41 -11 -12 -6 -69
-18 -127 -25 -87 -12 -122 -12 -193 -2 -49 6 -88 15 -88 20 0 4 -14 8 -31 8
-20 0 -28 4 -23 12 5 8 2 9 -10 5 -16 -6 -71 16 -125 51 -21 14 -22 16 -5 22
16 6 16 7 1 13 -9 3 -17 2 -17 -3 0 -6 -7 -10 -15 -10 -8 0 -15 7 -15 15 0 8
-5 15 -11 15 -15 0 -34 20 -53 57 -14 29 -14 32 0 35 13 3 13 7 -5 27 -12 13
-19 31 -17 40 2 9 7 27 11 41 13 51 39 96 72 128 19 17 36 32 37 32 2 0 19 15
38 33 46 42 195 116 253 124 25 3 45 10 45 16 0 6 17 7 40 4 22 -3 38 -1 35 3
-11 18 225 44 257 28 41 -20 36 -5 -6 17 -45 24 -68 27 -156 19z"/>
<path d="M4605 8468 c-34 -40 -122 -108 -140 -108 -10 0 -51 20 -92 45 -88 53
-81 55 -202 -50 -67 -58 -80 -75 -81 -100 0 -41 8 -50 55 -65 22 -7 43 -14 47
-17 4 -2 -19 -31 -52 -64 -33 -33 -60 -69 -60 -79 0 -11 24 -32 68 -58 111
-66 136 -78 157 -74 11 1 52 32 90 67 39 35 79 65 90 65 11 0 46 -18 77 -40
32 -22 69 -42 83 -46 28 -7 65 13 101 55 12 14 39 44 59 66 30 33 36 44 31 69
-7 36 1 28 -69 64 l-57 30 39 31 c21 17 46 31 55 31 9 0 16 3 16 8 0 4 11 14
25 23 l26 15 -33 42 c-78 99 -190 142 -233 90z m149 -39 c63 -45 61 -65 -14
-130 -33 -29 -60 -58 -60 -66 0 -7 12 -19 28 -25 54 -24 102 -59 102 -74 0
-19 -108 -134 -127 -134 -7 0 -59 23 -114 51 l-101 50 -56 -61 c-32 -34 -70
-69 -85 -77 -28 -14 -33 -12 -123 32 l-94 47 20 27 c10 15 40 46 65 68 25 23
45 48 45 56 0 9 -25 28 -59 44 -33 15 -60 30 -60 33 -1 10 16 27 92 93 87 75
74 74 175 11 29 -19 63 -34 77 -34 22 0 119 72 155 114 21 26 79 15 134 -25z"/>
<path d="M5445 7800 c-4 -6 6 -7 25 -4 32 7 44 -11 13 -19 -10 -2 8 -2 39 1
98 8 168 -42 168 -120 0 -130 -202 -188 -279 -80 -32 46 -28 91 14 139 24 28
32 44 24 49 -12 7 -39 -21 -65 -70 -37 -68 17 -196 88 -210 130 -26 256 38
259 132 3 81 -19 124 -75 149 -23 9 -43 20 -46 24 -9 11 -159 19 -165 9z"/>
<path d="M6060 7665 c-14 -8 -35 -19 -47 -24 -33 -15 -73 -85 -73 -126 0 -33
36 -105 59 -119 6 -4 8 -14 5 -24 -4 -12 -3 -13 3 -4 7 10 16 10 37 2 42 -16
129 -12 173 8 54 24 80 51 98 102 32 90 -3 164 -82 174 -15 2 -21 1 -13 -1 29
-9 70 -57 76 -90 18 -93 -98 -186 -209 -169 -56 9 -94 32 -112 66 -20 39 -19
73 5 119 22 44 65 68 141 80 27 5 52 11 56 15 13 13 -93 5 -117 -9z"/>
<path d="M2780 7650 c-38 -23 49 -158 147 -228 34 -24 73 -29 73 -9 0 14 -52
57 -68 57 -21 0 -111 115 -99 126 10 11 106 -20 148 -47 89 -57 85 -123 -11
-175 -57 -31 -56 -32 37 -63 78 -26 77 -26 91 4 10 21 9 27 -3 30 -8 3 -22 7
-30 10 -22 7 -18 35 5 35 34 0 52 -41 44 -99 -6 -44 -4 -54 12 -66 26 -20 48
-18 67 3 20 22 22 55 5 82 -10 16 -10 25 4 47 20 33 62 45 56 16 -2 -10 -13
-19 -26 -21 -25 -4 -26 -10 -13 -45 l10 -25 58 24 c32 13 66 24 76 24 9 0 17
7 17 15 0 8 -5 15 -10 15 -23 0 -91 53 -101 77 -15 41 -4 66 44 100 43 31 153
70 165 59 20 -20 -78 -127 -135 -148 -35 -13 -43 -35 -17 -45 49 -19 175 101
204 195 18 58 6 70 -52 52 -60 -19 -157 -67 -197 -97 -30 -23 -43 -26 -132
-27 -92 -2 -101 0 -121 21 -12 13 -17 23 -12 23 10 1 -23 14 -142 58 -48 18
-86 27 -94 22z"/>
<path d="M1845 1924 c-114 -34 -243 -78 -282 -96 -39 -19 -43 -23 -43 -58 0
-82 91 -92 279 -31 160 53 171 61 171 121 0 33 -5 52 -18 63 -22 20 -41 20
-107 1z"/>
<path d="M1028 1670 c-207 -60 -307 -114 -291 -157 21 -60 100 -68 250 -23
177 52 201 67 217 131 7 33 -18 66 -54 73 -14 2 -69 -8 -122 -24z"/>
<path d="M18 13753 c-14 -3 -18 -15 -18 -47 l0 -42 63 -13 c34 -7 66 -13 71
-14 5 -1 18 10 28 24 19 24 19 28 4 56 -20 39 -81 54 -148 36z"/>
<path d="M0 13365 l0 -182 62 -13 c35 -6 77 -16 95 -22 38 -11 10 -29 312 199
l75 56 -30 13 c-32 13 -277 75 -309 77 -18 2 -20 -3 -18 -54 4 -74 -13 -91
-62 -65 -37 20 -45 39 -45 106 0 45 -1 46 -40 57 l-40 10 0 -182z"/>
<path d="M534 13363 c-27 -20 -51 -39 -54 -42 -8 -9 -79 -62 -168 -126 l-84
-60 33 -8 c35 -9 56 3 193 113 39 30 80 62 91 70 12 8 37 28 55 43 27 23 31
30 19 38 -23 14 -34 11 -85 -28z"/>
<path d="M605 13323 c-38 -30 -79 -62 -90 -71 -11 -10 -57 -45 -103 -79 -75
-56 -81 -63 -63 -72 26 -14 46 -6 106 44 28 23 62 50 76 61 15 10 63 49 108
86 74 61 80 68 62 77 -11 6 -21 11 -23 10 -2 0 -34 -25 -73 -56z"/>
<path d="M694 13300 c-32 -28 -63 -54 -69 -58 -23 -17 -103 -80 -151 -118 -48
-38 -50 -42 -32 -53 21 -13 40 -5 83 36 11 10 40 34 65 53 62 47 204 171 208
182 2 4 -7 8 -21 8 -14 0 -47 -20 -83 -50z"/>
<path d="M149 13082 c-13 -11 -52 -38 -86 -61 -57 -39 -63 -46 -63 -77 l0 -35
96 66 c139 95 154 107 148 117 -9 15 -71 8 -95 -10z"/>
<path d="M274 13072 c-18 -16 -138 -102 -232 -166 -36 -24 -42 -34 -42 -63 l0
-35 68 48 c105 75 256 186 270 201 11 11 10 13 -5 13 -11 0 -24 5 -29 10 -7 7
-17 4 -30 -8z"/>
<path d="M349 13028 c-24 -18 -88 -65 -141 -105 -54 -40 -102 -73 -106 -73 -5
0 -19 -11 -32 -25 -13 -14 -29 -25 -37 -25 -16 0 -17 -21 0 -43 11 -15 31 -3
187 114 96 72 183 139 194 149 18 18 18 18 -1 29 -17 8 -28 4 -64 -21z"/>
<path d="M440 13006 c-50 -36 -235 -179 -240 -185 -3 -4 -31 -24 -62 -45 -32
-22 -58 -43 -58 -48 0 -4 -6 -7 -12 -5 -12 2 -15 -49 -4 -60 4 -5 154 104 184
134 7 7 16 13 20 13 4 0 23 14 42 31 19 18 60 50 90 73 30 22 70 55 89 72 l34
31 -27 5 c-18 4 -37 -2 -56 -16z"/>
<path d="M500 12959 c-30 -22 -68 -53 -85 -69 -16 -15 -79 -65 -140 -109 -198
-147 -203 -151 -207 -188 -2 -18 -2 -33 0 -33 4 0 64 48 93 75 9 8 19 15 24
15 4 0 24 15 45 33 21 17 74 61 120 97 45 36 101 81 124 100 23 19 61 51 84
70 29 24 38 36 29 42 -21 13 -31 9 -87 -33z"/>
<path d="M574 12927 c-28 -23 -84 -69 -125 -102 -41 -33 -90 -74 -109 -91 -19
-18 -52 -44 -72 -58 -64 -43 -101 -70 -128 -94 -15 -12 -35 -28 -44 -35 -16
-12 -16 -14 1 -29 18 -16 23 -14 103 48 47 36 87 69 90 73 3 4 30 26 60 48 55
41 97 76 135 111 11 10 57 49 103 87 58 48 79 71 70 77 -21 13 -30 9 -84 -35z"/>
<path d="M595 12853 c-83 -71 -269 -221 -434 -352 -31 -24 -33 -28 -21 -48 13
-21 15 -20 76 30 34 29 104 86 155 127 51 41 116 95 143 120 28 25 85 74 126
109 41 36 79 68 85 73 9 8 -10 29 -25 27 -3 0 -50 -39 -105 -86z"/>
<path d="M719 12869 c-13 -11 -42 -37 -64 -57 -23 -20 -63 -55 -89 -77 -27
-22 -58 -48 -70 -59 -45 -39 -208 -172 -239 -194 -86 -62 -114 -103 -76 -109
8 -2 70 44 139 102 69 58 147 124 174 146 103 84 215 192 209 202 -3 6 -1 7 5
3 13 -8 74 43 66 55 -9 15 -30 10 -55 -12z"/>
<path d="M413 12513 c-240 -194 -232 -187 -233 -217 0 -26 2 -27 18 -15 9 8
22 19 27 25 6 6 42 37 82 68 40 31 85 68 100 82 15 14 35 31 44 38 17 12 51
76 40 76 -3 0 -39 -26 -78 -57z"/>
<path d="M409 12420 c-19 -17 -77 -65 -131 -108 -68 -54 -104 -91 -123 -126
-14 -26 -25 -50 -23 -51 2 -2 26 16 53 41 28 24 100 86 162 137 63 52 108 96
103 101 -5 5 -6 15 -3 22 8 21 -1 17 -38 -16z"/>
<path d="M430 12351 c-41 -41 -374 -321 -408 -342 -22 -14 -33 -75 -12 -67 12
4 250 201 365 303 50 44 102 87 115 96 21 14 23 18 11 33 -19 22 -31 19 -71
-23z"/>
<path d="M715 12254 c-92 -87 -191 -180 -286 -268 -64 -60 -97 -89 -193 -171
-26 -22 -70 -62 -99 -88 -29 -27 -71 -63 -94 -80 -34 -24 -43 -37 -43 -60 0
-35 -10 -42 134 85 281 245 650 604 659 639 3 11 4 19 4 19 -1 0 -38 -34 -82
-76z"/>
<path d="M7795 12233 c-100 -27 -151 -168 -88 -244 39 -45 84 -62 132 -49 46
12 93 62 111 115 18 56 -2 139 -40 163 -23 14 -87 23 -115 15z"/>
<path d="M618 12077 c-165 -159 -337 -316 -522 -477 -23 -19 -49 -43 -60 -52
-11 -10 -23 -18 -28 -18 -4 0 -8 -13 -8 -30 0 -16 4 -30 8 -30 5 0 29 19 53
43 24 24 82 77 129 118 266 234 589 560 552 559 -4 0 -60 -51 -124 -113z"/>
<path d="M549 11927 c-199 -191 -337 -319 -431 -398 -47 -41 -87 -77 -87 -81
-1 -13 47 -9 61 5 7 7 63 57 123 111 133 120 418 400 446 439 49 66 5 36 -112
-76z"/>
<path d="M554 11848 c-28 -29 -117 -116 -200 -193 -226 -211 -210 -195 -190
-195 39 0 83 38 328 282 88 88 141 158 120 158 -4 0 -30 -24 -58 -52z"/>
<path d="M6590 11563 c-19 -27 -37 -50 -40 -53 -4 -3 -90 -115 -191 -250 -102
-135 -204 -270 -228 -300 -23 -30 -87 -113 -141 -185 -54 -71 -174 -230 -266
-352 -258 -338 -400 -527 -408 -540 -5 -8 3 -17 21 -24 48 -19 66 -27 113 -47
124 -54 502 -212 506 -212 3 0 24 -9 47 -19 23 -10 71 -31 107 -46 36 -14 79
-32 95 -40 105 -46 186 -80 241 -101 35 -13 85 -33 111 -45 71 -32 96 -42 233
-99 69 -28 139 -58 157 -66 17 -8 35 -14 40 -14 4 0 26 -9 48 -20 22 -11 119
-52 215 -91 96 -39 184 -75 195 -80 156 -68 210 -89 221 -85 12 4 233 302 302
407 30 45 33 55 30 117 l-3 67 -86 -115 c-47 -63 -96 -130 -108 -148 -30 -43
-33 -43 -248 49 -92 39 -179 74 -193 79 -14 4 -45 16 -70 27 -25 11 -74 33
-110 47 -36 15 -74 31 -85 36 -11 5 -45 19 -75 30 -85 34 -90 36 -164 69 -37
17 -72 31 -77 31 -5 0 -32 11 -61 23 -29 13 -100 43 -158 67 -58 23 -123 50
-145 60 -22 9 -51 21 -65 25 -14 4 -48 18 -76 31 -69 32 -297 124 -306 124 -3
0 -42 16 -85 36 -43 20 -88 40 -101 45 -21 8 -18 14 68 126 50 65 165 215 255
333 150 197 193 252 325 420 25 32 105 136 178 233 73 96 138 180 145 185 9 8
70 -10 217 -64 113 -42 250 -90 305 -109 55 -18 145 -50 200 -70 179 -67 258
-96 357 -130 53 -18 105 -38 116 -44 50 -27 52 -21 52 127 l0 137 -112 42
c-499 184 -640 234 -1001 354 -115 38 -221 69 -236 69 -21 0 -35 -11 -61 -47z"/>
<path d="M618 11257 c-42 -45 -111 -118 -152 -162 -42 -44 -76 -83 -76 -87 0
-3 22 -11 48 -18 84 -20 125 10 174 128 16 37 37 85 47 107 40 86 50 115 43
115 -4 0 -42 -37 -84 -83z"/>
<path d="M7972 9250 c-12 -16 -22 -33 -22 -37 0 -12 -37 -42 -43 -36 -3 3 -3
-5 0 -16 4 -17 2 -20 -11 -15 -11 4 -16 1 -16 -10 0 -9 -7 -19 -15 -22 -8 -4
-15 -13 -15 -22 0 -8 -3 -12 -7 -9 -3 4 -19 -12 -34 -35 -16 -24 -34 -52 -41
-62 -7 -11 -21 -28 -30 -38 -10 -10 -18 -21 -18 -25 0 -3 -7 -15 -17 -25 -15
-17 -15 -18 5 -18 13 0 22 6 22 15 0 8 5 15 10 15 13 0 13 -10 -2 -51 -14 -40
-26 -54 -56 -63 -24 -8 -29 -22 -9 -29 6 -3 -1 -10 -16 -16 -16 -6 -31 -20
-34 -31 -3 -11 -16 -23 -29 -26 -29 -7 -62 -92 -42 -106 24 -14 46 -8 79 22
17 17 37 29 44 26 8 -3 10 4 7 21 -3 16 -1 24 5 20 6 -4 23 10 39 31 15 20 34
41 41 45 7 4 13 16 13 26 0 11 7 21 15 25 8 3 20 17 25 31 5 14 14 25 20 25 5
0 19 19 31 43 12 23 25 44 28 47 4 3 17 22 30 43 12 20 27 37 32 37 5 0 9 6 9
14 0 7 7 19 14 26 12 9 15 35 14 111 -1 54 -2 99 -3 99 -1 0 -11 -13 -23 -30z"/>
<path d="M3420 5405 c-65 -15 -173 -54 -180 -65 -3 -4 -21 -15 -40 -25 -53
-27 -142 -91 -171 -122 -26 -27 -99 -137 -99 -148 0 -3 -10 -22 -23 -43 -13
-20 -45 -86 -71 -147 -26 -60 -58 -132 -71 -160 -13 -27 -30 -70 -39 -95 -8
-25 -29 -85 -46 -134 -33 -97 -60 -215 -60 -261 1 -34 22 -121 33 -131 4 -4 7
-13 7 -21 0 -35 144 -187 210 -222 35 -19 279 -101 380 -127 364 -97 457 -111
611 -95 167 18 326 90 429 195 100 102 297 481 383 736 80 237 48 416 -103
570 -89 91 -158 124 -430 201 -350 99 -575 128 -720 94z"/>
<path d="M6872 4351 c2 -10 13 -16 30 -16 19 1 24 -3 17 -11 -12 -15 10 -24
43 -18 19 4 20 3 4 -4 -17 -8 -17 -9 7 -25 15 -9 29 -17 32 -17 4 0 21 -11 39
-25 18 -14 37 -25 42 -25 6 0 15 -5 22 -12 7 -7 29 -11 50 -10 20 1 43 -2 51
-7 12 -8 12 -13 -2 -35 -9 -14 -17 -36 -17 -50 0 -14 -4 -28 -10 -31 -5 -3
-10 -10 -10 -16 0 -11 40 -13 40 -1 0 4 7 15 14 25 13 17 17 17 102 -3 49 -11
105 -25 124 -30 19 -6 143 -36 275 -69 132 -32 248 -62 258 -66 15 -6 17 1 17
81 l0 89 -133 33 c-72 18 -181 46 -242 62 -60 17 -128 34 -150 39 -22 5 -80
21 -130 35 -49 14 -139 34 -200 46 -60 12 -123 27 -140 34 -60 27 -80 35 -108
39 -22 3 -27 1 -25 -12z"/>
<path d="M4905 4329 c-9 -16 -42 -92 -75 -167 -52 -123 -83 -193 -125 -287 -8
-16 -25 -57 -39 -90 -24 -60 -91 -212 -127 -292 -23 -50 -23 -53 -6 -53 7 0
24 24 37 53 12 28 31 70 40 92 10 22 52 118 94 213 42 94 76 174 76 177 0 2
11 28 24 57 53 116 86 190 86 193 0 3 11 29 25 59 14 30 25 60 25 65 0 22 -20
10 -35 -20z"/>
<path d="M4983 4328 c-8 -13 -60 -131 -139 -317 -24 -57 -51 -118 -58 -135 -8
-17 -26 -58 -41 -91 -15 -33 -33 -73 -40 -90 -8 -16 -23 -52 -35 -80 -11 -27
-30 -67 -41 -89 -20 -40 -36 -116 -25 -116 4 0 23 35 42 78 19 42 39 86 44 97
5 11 25 58 45 105 20 47 43 99 50 115 46 102 68 153 91 208 14 34 32 76 39 92
103 232 104 235 86 235 -6 0 -13 -6 -18 -12z"/>
<path d="M4998 4187 c-145 -335 -180 -416 -203 -464 -14 -28 -25 -55 -25 -58
0 -3 -11 -30 -24 -58 -13 -29 -34 -77 -46 -107 -13 -30 -28 -60 -33 -67 -9
-13 -2 -33 12 -33 4 0 16 19 26 43 10 23 31 70 47 105 15 35 28 65 28 67 0 3
12 30 26 62 62 135 171 384 194 442 10 25 32 76 49 114 34 75 37 87 19 87 -7
0 -39 -60 -70 -133z"/>
<path d="M5102 4243 c-17 -38 -65 -147 -107 -243 -42 -96 -96 -220 -120 -275
-149 -340 -151 -345 -126 -345 7 0 61 111 61 125 0 3 13 34 29 68 16 34 41 90
55 124 14 35 38 89 52 120 79 173 204 467 204 480 0 30 -19 8 -48 -54z"/>
<path d="M5187 4258 c-8 -18 -27 -60 -42 -93 -14 -33 -30 -69 -35 -80 -5 -11
-48 -110 -96 -220 -48 -110 -113 -260 -145 -334 -56 -127 -71 -180 -49 -166 5
3 16 20 24 38 7 18 21 48 29 67 23 53 66 150 87 195 10 22 30 69 45 105 15 36
38 89 51 118 13 29 36 80 50 115 15 34 42 95 60 135 19 41 34 80 34 87 0 8 5
17 10 20 12 8 13 45 1 45 -5 0 -16 -15 -24 -32z"/>
<path d="M5240 4204 c-16 -37 -30 -69 -30 -71 0 -2 -9 -23 -19 -46 -26 -57
-151 -343 -218 -497 -51 -119 -75 -173 -94 -212 -12 -24 -11 -28 6 -28 8 0 21
15 29 33 26 57 56 126 143 326 47 108 93 215 104 238 10 23 19 44 19 47 0 3
18 44 40 90 71 153 82 186 60 186 -5 0 -23 -30 -40 -66z"/>
<path d="M5344 4249 c-11 -14 -49 -94 -66 -138 -5 -14 -43 -102 -84 -195 -89
-200 -84 -189 -163 -376 -34 -80 -66 -153 -71 -162 -6 -10 -10 -25 -10 -33 0
-32 18 -12 45 48 15 34 39 87 52 117 14 30 31 69 38 85 66 150 201 459 217
494 38 85 59 144 56 159 -3 13 -5 13 -14 1z"/>
<path d="M5385 4173 c-16 -38 -40 -95 -56 -128 -45 -101 -179 -406 -179 -410
0 -3 -11 -28 -25 -57 -49 -106 -105 -242 -105 -255 0 -7 4 -13 8 -13 9 0 92
175 92 194 0 7 4 16 9 22 5 5 37 74 71 154 34 80 71 163 82 185 11 22 26 56
33 75 7 19 36 87 64 150 28 62 51 122 51 132 0 36 -18 17 -45 -49z"/>
<path d="M5465 4184 c-8 -20 -15 -38 -15 -41 0 -5 -32 -78 -60 -138 -36 -76
-80 -176 -80 -181 0 -5 -95 -220 -146 -332 -19 -40 -34 -76 -34 -80 -1 -4 -9
-25 -20 -47 -23 -47 -25 -65 -7 -65 6 0 27 37 46 83 30 71 57 134 141 322 10
22 39 90 65 150 26 61 69 160 96 221 27 61 49 118 49 127 0 29 -19 18 -35 -19z"/>
<path d="M5529 4145 c-59 -132 -67 -150 -114 -260 -26 -60 -58 -134 -71 -163
-13 -29 -24 -55 -24 -57 0 -4 -31 -73 -81 -181 -30 -66 -79 -186 -79 -195 0
-5 5 -9 10 -9 8 0 80 140 80 155 0 3 11 28 81 182 10 24 19 46 19 49 0 3 16
41 36 83 19 42 54 119 76 171 22 52 50 118 63 145 45 98 53 122 44 136 -6 10
-17 -7 -40 -56z"/>
<path d="M5610 4155 c-5 -14 -32 -78 -61 -142 -74 -173 -79 -182 -110 -251
-16 -35 -29 -65 -29 -67 0 -4 -14 -36 -60 -140 -73 -164 -120 -276 -120 -286
0 -5 5 -9 10 -9 11 0 54 89 115 235 18 44 44 105 58 135 13 30 39 89 57 130
18 41 66 150 106 243 41 92 74 169 74 172 0 3 -7 5 -15 5 -9 0 -20 -11 -25
-25z"/>
<path d="M5693 4158 c-5 -7 -20 -38 -33 -68 -12 -30 -31 -75 -42 -100 -11 -25
-24 -54 -28 -65 -8 -17 -49 -111 -80 -180 -20 -46 -51 -117 -99 -230 -58 -136
-77 -178 -97 -217 -17 -33 -18 -48 -1 -48 11 0 35 49 133 275 62 143 249 566
260 589 22 46 13 78 -13 44z"/>
<path d="M5754 4128 c-6 -20 -48 -120 -99 -234 -8 -16 -29 -66 -48 -110 -19
-43 -44 -99 -55 -124 -20 -43 -118 -268 -149 -340 -8 -19 -19 -43 -24 -52 -13
-25 -11 -38 4 -38 13 0 24 21 102 205 23 55 57 130 74 167 17 36 31 69 31 72
0 5 7 22 89 203 22 50 41 94 41 96 0 3 16 40 35 82 33 71 37 95 15 95 -5 0
-12 -10 -16 -22z"/>
<path d="M5820 4098 c-7 -18 -24 -58 -37 -88 -28 -62 -30 -68 -103 -235 -29
-66 -58 -133 -65 -150 -11 -28 -59 -135 -110 -250 -70 -155 -73 -165 -52 -165
7 0 24 26 37 58 13 31 38 89 56 127 18 39 53 120 79 180 26 61 55 128 65 150
10 22 30 68 44 103 15 34 39 91 55 125 64 141 71 156 71 166 0 24 -28 9 -40
-21z"/>
<path d="M5886 4065 c-14 -31 -26 -57 -26 -60 0 -2 -16 -39 -36 -82 -20 -43
-44 -98 -54 -123 -10 -25 -34 -80 -54 -123 -20 -43 -36 -80 -36 -82 0 -2 -13
-32 -29 -67 -16 -35 -41 -92 -56 -128 -15 -36 -38 -87 -50 -115 -34 -75 -39
-96 -23 -93 11 3 67 101 68 120 0 4 12 33 26 65 15 32 33 74 41 93 8 19 18 44
23 55 18 41 62 141 75 170 55 123 65 146 65 151 0 3 18 43 40 90 22 47 43 96
46 109 3 14 10 28 15 31 12 7 12 44 0 44 -5 0 -20 -25 -35 -55z"/>
<path d="M5954 4043 c-14 -32 -45 -103 -69 -158 -85 -197 -157 -361 -181 -412
-13 -28 -24 -54 -24 -57 0 -2 -13 -34 -30 -69 -16 -36 -30 -72 -30 -80 0 -9
-5 -17 -10 -19 -6 -2 -13 -21 -16 -43 -6 -35 -5 -38 8 -25 8 8 25 40 38 70 12
30 33 80 47 110 14 30 33 75 43 100 10 25 25 59 34 75 9 17 16 33 16 37 0 4
15 40 34 80 46 100 131 296 152 349 9 24 21 48 26 54 4 5 8 17 8 27 0 35 -21
17 -46 -39z"/>
<path d="M6046 4071 c-6 -8 -30 -65 -160 -366 -31 -71 -65 -148 -76 -170 -31
-65 -70 -155 -70 -162 0 -4 -13 -34 -28 -67 -52 -112 -63 -138 -58 -143 12
-12 32 7 45 43 8 21 29 71 47 110 19 39 34 74 34 78 0 5 10 27 65 151 167 375
225 509 225 523 0 14 -16 16 -24 3z"/>
<path d="M6415 3864 c-52 -13 -139 -47 -157 -62 -11 -10 -29 -25 -40 -34 -11
-10 -25 -15 -31 -11 -5 3 -7 2 -4 -4 4 -6 -11 -29 -33 -52 -63 -66 -82 -113
-88 -213 -5 -90 13 -238 29 -238 5 0 9 -7 9 -15 0 -23 80 -98 130 -123 47 -22
175 -52 223 -52 56 0 184 32 245 62 201 99 300 309 231 494 -29 78 -121 170
-213 214 -62 29 -80 33 -175 36 -58 2 -115 1 -126 -2z"/>
<path d="M7504 3561 c-108 -39 -163 -81 -224 -170 -56 -83 -72 -140 -70 -241
4 -137 5 -148 13 -143 4 2 7 -5 7 -16 0 -12 5 -21 10 -21 6 0 10 -7 10 -15 0
-14 12 -31 56 -80 29 -31 106 -69 174 -85 155 -38 360 11 474 111 l46 41 -2
256 -3 256 -50 38 c-27 21 -79 49 -115 63 -56 21 -81 25 -170 24 -74 0 -120
-6 -156 -18z"/>
<path d="M0 1486 c0 -8 13 -17 30 -21 17 -4 30 -11 30 -17 0 -6 6 -8 13 -6 13
5 49 -27 40 -36 -4 -3 1 -6 10 -6 10 0 17 -4 17 -9 0 -6 -12 -6 -32 0 -18 5
-50 9 -70 9 l-38 0 0 -171 0 -171 43 7 c123 21 207 112 207 227 0 76 -42 134
-129 177 -51 26 -121 36 -121 17z"/>
<path d="M6687 1312 c-10 -10 -17 -26 -17 -34 0 -9 -11 -23 -25 -32 -30 -20
-32 -42 -5 -51 14 -4 30 2 51 19 35 29 42 31 69 14 15 -10 23 -9 39 6 30 27
26 48 -14 74 -42 27 -76 28 -98 4z"/>
<path d="M6819 1213 c-13 -9 -26 -18 -28 -19 -2 -2 1 -16 7 -33 10 -29 10 -29
-34 -40 -26 -7 -44 -17 -44 -26 0 -21 15 -26 36 -10 35 27 39 15 5 -14 -45
-37 -35 -55 21 -35 53 18 58 18 58 -7 0 -17 5 -20 21 -16 15 4 19 2 15 -9 -4
-9 1 -14 15 -14 22 0 35 23 23 42 -5 7 -9 31 -10 53 -3 39 -37 129 -53 139 -4
3 -19 -2 -32 -11z"/>
<path d="M6865 931 c-11 -4 -20 -14 -21 -22 -3 -48 -2 -47 -56 -45 -47 1 -53
-1 -53 -19 -1 -11 -5 -26 -9 -34 -13 -20 20 -41 66 -41 37 0 37 -1 35 -37 -2
-32 1 -37 25 -44 33 -9 36 -5 54 69 19 81 18 168 -2 176 -9 3 -16 6 -17 5 -1
0 -11 -4 -22 -8z"/>
<path d="M6661 646 c-27 -29 -27 -33 9 -51 18 -9 30 -23 30 -35 0 -23 29 -60
47 -60 19 0 82 59 100 93 15 29 14 31 -8 48 -31 24 -37 23 -59 -3 l-18 -22
-40 26 -40 27 -21 -23z"/>
</g>
</svg>
