<?xml version="1.0" encoding="UTF-8" standalone="no"?> <svg width="512" height="512" viewBox="0 0 512 512" fill="none" xmlns="http://www.w3.org/2000/svg">
<path d="M32 128C32 74.9807 74.9807 32 128 32H384C437.019 32 480 74.9807 480 128V384C480 437.019 437.019 480 384 480H128C74.9807 480 32 437.019 32 384V128Z" fill="#597DDC"/>
<path fill-rule="evenodd" clip-rule="evenodd" d="M128 32C74.9807 32 32 74.9807 32 128V368C32 412.183 67.8172 448 112 448H368C412.183 448 448 412.183 448 368V112C448 67.8172 412.183 32 368 32H128Z" fill="#6EBAFF"/>
<path fill-rule="evenodd" clip-rule="evenodd" d="M140 128C140 116.954 148.954 108 160 108H336C355.882 108 372 124.118 372 144V368C372 387.882 355.882 404 336 404H160C148.954 404 140 395.046 140 384C140 372.954 148.954 364 160 364H332V276H160C148.954 276 140 267.046 140 256C140 244.954 148.954 236 160 236H332V148H160C148.954 148 140 139.046 140 128Z" fill="white"/>
</svg>
