<?xml version="1.0" encoding="utf-8"?>
<!-- Generator: Adobe Illustrator 24.3.0, SVG Export Plug-In . SVG Version: 6.00 Build 0)  -->
<svg version="1.1" id="Layer_1" xmlns="http://www.w3.org/2000/svg" xmlns:xlink="http://www.w3.org/1999/xlink" x="0px" y="0px"
	 viewBox="0 0 24 22" enable-background="new 0 0 24 22" xml:space="preserve">
<g id="ranking">
	<path fill="#F7941E" d="M7,8c0-0.5522-0.4473-1-1-1H1C0.4473,7,0,7.4478,0,8v14h7V8z M5,15H3v1h2v1H2v-3h2v-1H2v-1h3V15z"/>
	<path fill="#754C29" d="M23,11h-5c-0.5527,0-1,0.4478-1,1v10h7V12C24,11.4478,23.5527,11,23,11z M22,19h-3v-1h2v-1h-2v-1h2v-1h-2
		v-1h3V19z"/>
	<path fill="#00AEEF" d="M15,0H9C8.4473,0,8,0.4478,8,1v21h8V1C16,0.4478,15.5527,0,15,0z M14,16h-4v-1h1V7h-1V6h3v9h1V16z"/>
</g>
</svg>
