<?xml version="1.0" encoding="UTF-8" standalone="no"?> <svg xmlns="http://www.w3.org/2000/svg" viewBox="0 0 64 64"><defs><style>.cls-1{fill:#f64f7d;}.cls-2{fill:#e43b74;}.cls-3{fill:#f8c577;}.cls-4{fill:#fcdea7;}.cls-5{fill:#94a1b2;}.cls-6{fill:#f8e157;}.cls-7{fill:#5e697b;}.cls-8{fill:#18181f;}</style></defs><g id="Trending_Topic" data-name="Trending Topic"><path class="cls-1" d="M8.89,49H21a3.58,3.58,0,0,1,3.59,3.59V60H5.31V52.61A3.58,3.58,0,0,1,8.89,49Z"/><path class="cls-1" d="M55.11,49H43.05a3.58,3.58,0,0,0-3.59,3.59V60H58.69V52.61A3.58,3.58,0,0,0,55.11,49Z"/><path class="cls-2" d="M47.87,49a3.58,3.58,0,0,1,3.59,3.59V60h7.23V52.61A3.58,3.58,0,0,0,55.11,49Z"/><path class="cls-2" d="M13.72,49a3.58,3.58,0,0,1,3.59,3.59V60h7.23V52.61A3.58,3.58,0,0,0,21,49Z"/><path class="cls-3" d="M12.46,44.34V49a2.47,2.47,0,0,0,4.93,0V44.34Z"/><path class="cls-3" d="M51.54,44.34V49a2.47,2.47,0,0,1-4.93,0V44.34Z"/><path class="cls-4" d="M9.27,37.53v4.28a5.66,5.66,0,1,0,11.31,0V37.53Z"/><path class="cls-4" d="M54.73,37.53v4.28a5.66,5.66,0,1,1-11.31,0V37.53Z"/><path class="cls-5" d="M23.32,29.83H12a2.74,2.74,0,0,0-2.74,2.74v5H20.58a2.74,2.74,0,0,0,2.74-2.74Z"/><path class="cls-5" d="M40.68,29.83H52a2.74,2.74,0,0,1,2.74,2.74v5H43.42a2.74,2.74,0,0,1-2.74-2.74Z"/><polygon class="cls-6" points="16.07 4 16.07 21.55 20.27 21.55 20.27 25.65 24.1 21.55 39.91 21.55 43.73 25.65 43.73 21.55 47.93 21.55 47.93 4 16.07 4"/><path class="cls-3" d="M51.87,37.53v4.28a5.64,5.64,0,0,1-4.23,5.47,5.64,5.64,0,0,0,7.09-5.47V37.53Z"/><path class="cls-7" d="M49.13,29.83a2.74,2.74,0,0,1,2.74,2.74v5h2.86v-5A2.74,2.74,0,0,0,52,29.83Z"/><path class="cls-3" d="M18.45,37.53v4.28a5.63,5.63,0,0,1-4.59,5.55,5.37,5.37,0,0,0,1.06.11,5.65,5.65,0,0,0,5.66-5.66V37.53Z"/><path class="cls-7" d="M19.92,29.83v5a2.74,2.74,0,0,1-2.73,2.74h3.39a2.74,2.74,0,0,0,2.74-2.74v-5Z"/><polygon class="cls-1" points="29.45 8.02 34.99 12 29.45 15.98 29.45 8.02"/><path class="cls-8" d="M5.31,61H24.54a1,1,0,0,0,1-1V52.61A4.59,4.59,0,0,0,21,48H18.39v-.54a6.65,6.65,0,0,0,3.19-5.67V38.37a3.73,3.73,0,0,0,2.74-3.58v-5a1,1,0,0,0-1-1H12a3.75,3.75,0,0,0-3.74,3.74v5h0v4.28a6.65,6.65,0,0,0,3.19,5.67V48H8.89a4.59,4.59,0,0,0-4.58,4.59V60A1,1,0,0,0,5.31,61Zm8.15-12.13V48.3a6.4,6.4,0,0,0,2.93,0v.58a.7.7,0,0,0,0,.14s0,0,0,.07a1.45,1.45,0,0,1-2.89,0s0-.05,0-.08A.8.8,0,0,0,13.46,48.87Zm-3.19-16.3A1.74,1.74,0,0,1,12,30.83H22.32v4a1.74,1.74,0,0,1-1.74,1.74H10.27Zm0,6h9.31v3.28a4.66,4.66,0,1,1-9.31,0Zm-4,14.08A2.59,2.59,0,0,1,8.89,50h2.76a3.44,3.44,0,0,0,6.55,0H21a2.59,2.59,0,0,1,2.58,2.59V59H6.31Z"/><path class="cls-8" d="M17.75,42.41a1,1,0,0,0,1-1V40.32a1,1,0,0,0-2,0v1.09A1,1,0,0,0,17.75,42.41Z"/><path class="cls-8" d="M14.08,42.41a1,1,0,0,0,1-1V40.32a1,1,0,0,0-2,0v1.09A1,1,0,0,0,14.08,42.41Z"/><path class="cls-8" d="M39.68,29.83v5a3.73,3.73,0,0,0,2.74,3.58v3.44a6.65,6.65,0,0,0,3.19,5.67V48H43a4.59,4.59,0,0,0-4.58,4.59V60a1,1,0,0,0,1,1H58.69a1,1,0,0,0,1-1V52.61A4.59,4.59,0,0,0,55.11,48H52.54v-.54a6.65,6.65,0,0,0,3.19-5.67V32.57A3.75,3.75,0,0,0,52,28.83H40.68A1,1,0,0,0,39.68,29.83ZM50.54,48.88a.7.7,0,0,0,0,.14s0,0,0,.07a1.45,1.45,0,0,1-2.89,0s0,0,0-.07a.7.7,0,0,0,0-.14V48.3a6.4,6.4,0,0,0,2.93,0Zm7.15,3.73V59H40.46V52.61A2.59,2.59,0,0,1,43,50H45.8a3.44,3.44,0,0,0,6.55,0h2.76A2.59,2.59,0,0,1,57.69,52.61Zm-4-10.8a4.66,4.66,0,1,1-9.31,0V38.53h9.31Zm-12-11H52a1.74,1.74,0,0,1,1.74,1.74v4H43.42a1.74,1.74,0,0,1-1.74-1.74Z"/><path class="cls-8" d="M46.25,42.41a1,1,0,0,0,1-1V40.32a1,1,0,1,0-2,0v1.09A1,1,0,0,0,46.25,42.41Z"/><path class="cls-8" d="M49.92,42.41a1,1,0,0,0,1-1V40.32a1,1,0,0,0-2,0v1.09A1,1,0,0,0,49.92,42.41Z"/><path class="cls-8" d="M16.08,22.55h3.19v3.1a1,1,0,0,0,1.73.69l3.53-3.79H39.47L43,26.34a1,1,0,0,0,.73.31.94.94,0,0,0,.37-.07,1,1,0,0,0,.63-.93v-3.1h3.2a1,1,0,0,0,1-1V4a1,1,0,0,0-1-1H16.08a1,1,0,0,0-1,1V21.55A1,1,0,0,0,16.08,22.55ZM17.08,5H46.93V20.55h-3.2a1,1,0,0,0-1,1v1.57l-2.09-2.25a1,1,0,0,0-.73-.32H24.1a1,1,0,0,0-.73.32l-2.1,2.25V21.55a1,1,0,0,0-1-1H17.08Z"/><path class="cls-8" d="M29,16.87a1,1,0,0,0,.45.11,1.06,1.06,0,0,0,.59-.19l5.53-4a1,1,0,0,0,0-1.62L30,7.21A1,1,0,0,0,28.45,8v8A1,1,0,0,0,29,16.87ZM30.45,10l2.82,2-2.82,2Z"/></g></svg>