<?xml version="1.0" encoding="UTF-8" standalone="no"?> <svg width="64" height="64" viewBox="0 0 64 64" fill="none" xmlns="http://www.w3.org/2000/svg">
<path d="M61 11V57C60.9974 58.0601 60.5751 59.0759 59.8255 59.8255C59.0759 60.5751 58.0601 60.9974 57 61H7C5.93913 61 4.92172 60.5786 4.17157 59.8284C3.42143 59.0783 3 58.0609 3 57V11H61Z" fill="#5AAAE7"/>
<path d="M49 20V42C48.9984 42.5299 48.7872 43.0377 48.4125 43.4125C48.0377 43.7872 47.5299 43.9984 47 44H30V50L24 44H11C10.4701 43.9984 9.96227 43.7872 9.58753 43.4125C9.2128 43.0377 9.00158 42.5299 9 42V20C9.00158 19.4701 9.2128 18.9623 9.58753 18.5875C9.96227 18.2128 10.4701 18.0016 11 18H47C47.5299 18.0016 48.0377 18.2128 48.4125 18.5875C48.7872 18.9623 48.9984 19.4701 49 20V20Z" fill="#3D9AE2"/>
<path d="M47 18V40C46.9984 40.5299 46.7872 41.0377 46.4125 41.4125C46.0377 41.7872 45.5299 41.9984 45 42H28V48L22 42H9C8.47005 41.9984 7.96227 41.7872 7.58753 41.4125C7.2128 41.0377 7.00158 40.5299 7 40V18C7.00158 17.4701 7.2128 16.9623 7.58753 16.5875C7.96227 16.2128 8.47005 16.0016 9 16H45C45.5299 16.0016 46.0377 16.2128 46.4125 16.5875C46.7872 16.9623 46.9984 17.4701 47 18V18Z" fill="#00CCB3"/>
<path d="M61 7V11H3V7C3 5.93913 3.42143 4.92172 4.17157 4.17157C4.92172 3.42143 5.93913 3 7 3H57C58.0609 3 59.0783 3.42143 59.8284 4.17157C60.5786 4.92172 61 5.93913 61 7Z" fill="#FF5023"/>
<path d="M44.08 29C44.2916 28.9992 44.498 29.0656 44.6695 29.1897C44.841 29.3137 44.9687 29.4889 45.0343 29.6901C45.0999 29.8913 45.1 30.1081 45.0345 30.3094C44.969 30.5106 44.8414 30.6859 44.67 30.81L43.35 31.76L43.85 33.31C43.9162 33.5111 43.9169 33.7281 43.8519 33.9297C43.7869 34.1312 43.6596 34.3069 43.4883 34.4314C43.3171 34.556 43.1107 34.623 42.8989 34.6227C42.6872 34.6225 42.4809 34.555 42.31 34.43L41 33.47L39.69 34.43C39.519 34.555 39.3128 34.6225 39.1011 34.6227C38.8893 34.623 38.6829 34.556 38.5117 34.4314C38.3404 34.3069 38.2131 34.1312 38.1481 33.9297C38.0831 33.7281 38.0838 33.5111 38.15 33.31L38.65 31.76L37.33 30.81C37.1586 30.6859 37.0309 30.5106 36.9655 30.3094C36.9 30.1081 36.9001 29.8913 36.9656 29.6901C37.0312 29.4889 37.159 29.3137 37.3305 29.1897C37.502 29.0656 37.7084 28.9992 37.92 29H39.55L40.05 27.45C40.1158 27.2499 40.243 27.0757 40.4136 26.9522C40.5842 26.8287 40.7894 26.7623 41 26.7623C41.2106 26.7623 41.4158 26.8287 41.5864 26.9522C41.757 27.0757 41.8842 27.2499 41.95 27.45L42.45 29H44.08Z" fill="#00B39D"/>
<path d="M32.08 29C32.2916 28.9992 32.498 29.0656 32.6695 29.1897C32.841 29.3137 32.9687 29.4889 33.0343 29.6901C33.0999 29.8913 33.1 30.1081 33.0345 30.3094C32.969 30.5106 32.8414 30.6859 32.67 30.81L31.35 31.76L31.85 33.31C31.9162 33.5111 31.9169 33.7281 31.8519 33.9297C31.7869 34.1312 31.6596 34.3069 31.4883 34.4314C31.3171 34.556 31.1107 34.623 30.8989 34.6227C30.6872 34.6225 30.4809 34.555 30.31 34.43L29 33.47L27.69 34.43C27.519 34.555 27.3128 34.6225 27.1011 34.6227C26.8893 34.623 26.6829 34.556 26.5117 34.4314C26.3404 34.3069 26.2131 34.1312 26.1481 33.9297C26.0831 33.7281 26.0838 33.5111 26.15 33.31L26.65 31.76L25.33 30.81C25.1586 30.6859 25.0309 30.5106 24.9655 30.3094C24.9 30.1081 24.9001 29.8913 24.9656 29.6901C25.0312 29.4889 25.159 29.3137 25.3305 29.1897C25.502 29.0656 25.7084 28.9992 25.92 29H27.55L28.05 27.45C28.1157 27.2499 28.243 27.0757 28.4136 26.9522C28.5842 26.8287 28.7894 26.7623 29 26.7623C29.2106 26.7623 29.4158 26.8287 29.5864 26.9522C29.757 27.0757 29.8842 27.2499 29.95 27.45L30.45 29H32.08Z" fill="#00B39D"/>
<path d="M20.08 29C20.2916 28.9992 20.498 29.0656 20.6695 29.1897C20.841 29.3137 20.9687 29.4889 21.0343 29.6901C21.0999 29.8913 21.1 30.1081 21.0345 30.3094C20.969 30.5106 20.8414 30.6859 20.67 30.81L19.35 31.76L19.85 33.31C19.9162 33.5111 19.9169 33.7281 19.8519 33.9297C19.7869 34.1312 19.6596 34.3069 19.4883 34.4314C19.3171 34.556 19.1107 34.623 18.8989 34.6227C18.6872 34.6225 18.4809 34.555 18.31 34.43L17 33.47L15.69 34.43C15.519 34.555 15.3128 34.6225 15.1011 34.6227C14.8893 34.623 14.6829 34.556 14.5117 34.4314C14.3404 34.3069 14.2131 34.1312 14.1481 33.9297C14.0831 33.7281 14.0838 33.5111 14.15 33.31L14.65 31.76L13.33 30.81C13.1586 30.6859 13.0309 30.5106 12.9655 30.3094C12.9 30.1081 12.9001 29.8913 12.9656 29.6901C13.0312 29.4889 13.159 29.3137 13.3305 29.1897C13.502 29.0656 13.7084 28.9992 13.92 29H15.55L16.05 27.45C16.1157 27.2499 16.243 27.0757 16.4136 26.9522C16.5842 26.8287 16.7894 26.7623 17 26.7623C17.2106 26.7623 17.4158 26.8287 17.5864 26.9522C17.757 27.0757 17.8842 27.2499 17.95 27.45L18.45 29H20.08Z" fill="#00B39D"/>
<path d="M42.08 27C42.2916 26.9992 42.498 27.0656 42.6695 27.1897C42.841 27.3137 42.9687 27.4889 43.0343 27.6901C43.0999 27.8913 43.1 28.1081 43.0345 28.3094C42.969 28.5106 42.8414 28.6859 42.67 28.81L41.35 29.76L41.85 31.31C41.9162 31.5111 41.9169 31.7281 41.8519 31.9297C41.7869 32.1312 41.6596 32.3069 41.4883 32.4314C41.3171 32.556 41.1107 32.623 40.8989 32.6227C40.6872 32.6225 40.4809 32.555 40.31 32.43L39 31.47L37.69 32.43C37.519 32.555 37.3128 32.6225 37.1011 32.6227C36.8893 32.623 36.6829 32.556 36.5117 32.4314C36.3404 32.3069 36.2131 32.1312 36.1481 31.9297C36.0831 31.7281 36.0838 31.5111 36.15 31.31L36.65 29.76L35.33 28.81C35.1586 28.6859 35.0309 28.5106 34.9655 28.3094C34.9 28.1081 34.9001 27.8913 34.9656 27.6901C35.0312 27.4889 35.159 27.3137 35.3305 27.1897C35.502 27.0656 35.7084 26.9992 35.92 27H37.55L38.05 25.45C38.1158 25.2499 38.243 25.0757 38.4136 24.9522C38.5842 24.8287 38.7894 24.7623 39 24.7623C39.2106 24.7623 39.4158 24.8287 39.5864 24.9522C39.757 25.0757 39.8842 25.2499 39.95 25.45L40.45 27H42.08Z" fill="#FF9811"/>
<path d="M40.12 39.88C39.7005 39.461 39.1661 39.1757 38.5845 39.0601C38.0029 38.9446 37.4002 39.004 36.8523 39.2309C36.3045 39.4577 35.8361 39.8418 35.5064 40.3347C35.1768 40.8275 35.0005 41.407 35 42H41C41 41.6061 40.9223 41.2161 40.7713 40.8523C40.6203 40.4885 40.399 40.1581 40.12 39.88Z" fill="#00B39D"/>
<path d="M58.12 51.88C57.7004 51.461 57.1661 51.1757 56.5845 51.0601C56.0029 50.9446 55.4002 51.004 54.8523 51.2309C54.3044 51.4577 53.8361 51.8418 53.5064 52.3347C53.1767 52.8275 53.0005 53.407 53 54V53C53 52.2044 52.6839 51.4413 52.1213 50.8787C51.5587 50.3161 50.7956 50 50 50C49.2043 50 48.4413 50.3161 47.8787 50.8787C47.3161 51.4413 47 52.2044 47 53V52C47 51.2044 46.6839 50.4413 46.1213 49.8787C45.5587 49.3161 44.7956 49 44 49C43.2043 49 42.4413 49.3161 41.8787 49.8787C41.3161 50.4413 41 51.2044 41 52V42H35V59L33 55.54C32.6014 54.8513 31.9459 54.3488 31.1773 54.1426C30.4088 53.9364 29.5898 54.0433 28.9 54.44C28.2129 54.8401 27.7118 55.4956 27.5058 56.2635C27.2997 57.0314 27.4055 57.8497 27.8 58.54L29.2 61H57C57.7026 60.9993 58.3925 60.813 59 60.46V54C59 53.6061 58.9223 53.2161 58.7713 52.8523C58.6203 52.4885 58.399 52.1581 58.12 51.88V51.88Z" fill="#3D9AE2"/>
<path d="M57 52V61H28.33L25.8 56.54C25.5366 56.0838 25.398 55.5663 25.3981 55.0395C25.3982 54.5127 25.5369 53.9953 25.8005 53.5392C26.064 53.0831 26.443 52.7044 26.8993 52.4412C27.3556 52.178 27.8732 52.0397 28.4 52.04C28.9273 52.0378 29.4457 52.1755 29.9025 52.439C30.3592 52.7025 30.7379 53.0824 31 53.54L33 57V40C33 39.2044 33.3161 38.4413 33.8787 37.8787C34.4413 37.3161 35.2043 37 36 37C36.7956 37 37.5587 37.3161 38.1213 37.8787C38.6839 38.4413 39 39.2044 39 40V50C39 49.2044 39.3161 48.4413 39.8787 47.8787C40.4413 47.3161 41.2043 47 42 47C42.7956 47 43.5587 47.3161 44.1213 47.8787C44.6839 48.4413 45 49.2044 45 50V51C45 50.2044 45.3161 49.4413 45.8787 48.8787C46.4413 48.3161 47.2043 48 48 48C48.7956 48 49.5587 48.3161 50.1213 48.8787C50.6839 49.4413 51 50.2044 51 51V52C51 51.2044 51.3161 50.4413 51.8787 49.8787C52.4413 49.3161 53.2043 49 54 49C54.7956 49 55.5587 49.3161 56.1213 49.8787C56.6839 50.4413 57 51.2044 57 52Z" fill="#FFC477"/>
<path d="M30.08 27C30.2916 26.9992 30.498 27.0656 30.6695 27.1897C30.841 27.3137 30.9687 27.4889 31.0343 27.6901C31.0999 27.8913 31.1 28.1081 31.0345 28.3094C30.969 28.5106 30.8414 28.6859 30.67 28.81L29.35 29.76L29.85 31.31C29.9162 31.5111 29.9169 31.7281 29.8519 31.9297C29.7869 32.1312 29.6596 32.3069 29.4883 32.4314C29.3171 32.556 29.1107 32.623 28.8989 32.6227C28.6872 32.6225 28.4809 32.555 28.31 32.43L27 31.47L25.69 32.43C25.519 32.555 25.3128 32.6225 25.1011 32.6227C24.8893 32.623 24.6829 32.556 24.5117 32.4314C24.3404 32.3069 24.2131 32.1312 24.1481 31.9297C24.0831 31.7281 24.0838 31.5111 24.15 31.31L24.65 29.76L23.33 28.81C23.1586 28.6859 23.0309 28.5106 22.9655 28.3094C22.9 28.1081 22.9001 27.8913 22.9656 27.6901C23.0312 27.4889 23.159 27.3137 23.3305 27.1897C23.502 27.0656 23.7084 26.9992 23.92 27H25.55L26.05 25.45C26.1157 25.2499 26.243 25.0757 26.4136 24.9522C26.5842 24.8287 26.7894 24.7623 27 24.7623C27.2106 24.7623 27.4158 24.8287 27.5864 24.9522C27.757 25.0757 27.8842 25.2499 27.95 25.45L28.45 27H30.08Z" fill="#FF9811"/>
<path d="M18.08 27C18.2916 26.9992 18.498 27.0656 18.6695 27.1897C18.841 27.3137 18.9687 27.4889 19.0343 27.6901C19.0999 27.8913 19.1 28.1081 19.0345 28.3094C18.969 28.5106 18.8414 28.6859 18.67 28.81L17.35 29.76L17.85 31.31C17.9162 31.5111 17.9169 31.7281 17.8519 31.9297C17.7869 32.1312 17.6596 32.3069 17.4883 32.4314C17.3171 32.556 17.1107 32.623 16.8989 32.6227C16.6872 32.6225 16.4809 32.555 16.31 32.43L15 31.47L13.69 32.43C13.519 32.555 13.3128 32.6225 13.1011 32.6227C12.8893 32.623 12.6829 32.556 12.5117 32.4314C12.3404 32.3069 12.2131 32.1312 12.1481 31.9297C12.0831 31.7281 12.0838 31.5111 12.15 31.31L12.65 29.76L11.33 28.81C11.1586 28.6859 11.0309 28.5106 10.9655 28.3094C10.9 28.1081 10.9001 27.8913 10.9656 27.6901C11.0312 27.4889 11.159 27.3137 11.3305 27.1897C11.502 27.0656 11.7084 26.9992 11.92 27H13.55L14.05 25.45C14.1158 25.2499 14.243 25.0757 14.4136 24.9522C14.5842 24.8287 14.7894 24.7623 15 24.7623C15.2106 24.7623 15.4158 24.8287 15.5864 24.9522C15.757 25.0757 15.8842 25.2499 15.95 25.45L16.45 27H18.08Z" fill="#FF9811"/>
<path d="M57 2H7C5.67392 2 4.40215 2.52678 3.46447 3.46447C2.52678 4.40215 2 5.67392 2 7V57C2 58.3261 2.52678 59.5979 3.46447 60.5355C4.40215 61.4732 5.67392 62 7 62H57C58.3261 62 59.5979 61.4732 60.5355 60.5355C61.4732 59.5979 62 58.3261 62 57V7C62 5.67392 61.4732 4.40215 60.5355 3.46447C59.5979 2.52678 58.3261 2 57 2V2ZM56 60H28.91L26.67 56.05C26.538 55.8228 26.4521 55.5719 26.4171 55.3115C26.3821 55.0511 26.3987 54.7863 26.4661 54.5323C26.5334 54.2784 26.6501 54.0402 26.8095 53.8313C26.9688 53.6224 27.1678 53.447 27.395 53.315C27.8538 53.0485 28.3997 52.9751 28.9127 53.1111C29.1666 53.1784 29.4048 53.2951 29.6137 53.4545C29.8226 53.6138 29.998 53.8128 30.13 54.04L32.13 57.5C32.2424 57.6898 32.4132 57.8381 32.6169 57.9228C32.8205 58.0076 33.0462 58.0241 33.26 57.97C33.4731 57.9126 33.6612 57.7864 33.7951 57.6109C33.9289 57.4355 34.001 57.2207 34 57V40C34.0016 39.4701 34.2128 38.9623 34.5875 38.5875C34.9623 38.2128 35.4701 38.0016 36 38C36.5292 38.0039 37.0356 38.2159 37.4099 38.5901C37.7841 38.9644 37.9961 39.4708 38 40V54C38 54.2652 38.1054 54.5196 38.2929 54.7071C38.4804 54.8946 38.7348 55 39 55C39.2652 55 39.5196 54.8946 39.7071 54.7071C39.8946 54.5196 40 54.2652 40 54V50C40.0016 49.4701 40.2128 48.9623 40.5875 48.5875C40.9623 48.2128 41.4701 48.0016 42 48C42.5292 48.0039 43.0356 48.2159 43.4099 48.5901C43.7841 48.9644 43.9961 49.4708 44 50V54C44 54.2652 44.1054 54.5196 44.2929 54.7071C44.4804 54.8946 44.7348 55 45 55C45.2652 55 45.5196 54.8946 45.7071 54.7071C45.8946 54.5196 46 54.2652 46 54V51C46.0016 50.4701 46.2128 49.9623 46.5875 49.5875C46.9623 49.2128 47.4701 49.0016 48 49C48.5292 49.0039 49.0356 49.2159 49.4099 49.5901C49.7841 49.9644 49.9961 50.4708 50 51V54C50 54.2652 50.1054 54.5196 50.2929 54.7071C50.4804 54.8946 50.7348 55 51 55C51.2652 55 51.5196 54.8946 51.7071 54.7071C51.8946 54.5196 52 54.2652 52 54V52C52.0016 51.4701 52.2128 50.9623 52.5875 50.5875C52.9623 50.2128 53.4701 50.0016 54 50C54.5292 50.0039 55.0356 50.2159 55.4099 50.5901C55.7841 50.9644 55.9961 51.4708 56 52V60ZM38.83 37.17C38.2706 36.61 37.5576 36.2285 36.7812 36.0739C36.0049 35.9193 35.2001 35.9985 34.4688 36.3015C33.7375 36.6045 33.1126 37.1177 32.6731 37.7761C32.2336 38.4344 31.9994 39.2084 32 40V41H28C27.7348 41 27.4804 41.1054 27.2929 41.2929C27.1054 41.4804 27 41.7348 27 42V45.59L22.71 41.29C22.5193 41.1058 22.2651 41.002 22 41H9C8.73478 41 8.48043 40.8946 8.29289 40.7071C8.10536 40.5196 8 40.2652 8 40V18C8 17.7348 8.10536 17.4804 8.29289 17.2929C8.48043 17.1054 8.73478 17 9 17H45C45.2652 17 45.5196 17.1054 45.7071 17.2929C45.8946 17.4804 46 17.7348 46 18V40C46 40.2652 45.8946 40.5196 45.7071 40.7071C45.5196 40.8946 45.2652 41 45 41H40V40C40.0004 39.4746 39.8973 38.9542 39.6965 38.4686C39.4958 37.983 39.2013 37.5417 38.83 37.17ZM60 57C59.9968 57.6186 59.8031 58.2212 59.4452 58.7258C59.0874 59.2304 58.5827 59.6124 58 59.82V52C58.0007 51.4745 57.8976 50.9541 57.6969 50.4685C57.4961 49.9829 57.2015 49.5417 56.8299 49.1701C56.4583 48.7985 56.0171 48.5039 55.5315 48.3031C55.0459 48.1024 54.5255 47.9993 54 48C53.0563 48.0033 52.1448 48.3438 51.43 48.96C51.2626 48.6735 51.0611 48.4082 50.83 48.17C50.4583 47.7987 50.017 47.5042 49.5314 47.3035C49.0458 47.1027 48.5254 46.9996 48 47C47.0563 47.0033 46.1448 47.3438 45.43 47.96C45.2626 47.6735 45.0611 47.4082 44.83 47.17C44.4583 46.7987 44.017 46.5042 43.5314 46.3035C43.0458 46.1027 42.5254 45.9996 42 46C41.295 46.0028 40.6039 46.1963 40 46.56V43H45C45.7949 42.9976 46.5566 42.6808 47.1187 42.1187C47.6808 41.5566 47.9976 40.7949 48 40V18C47.9976 17.2051 47.6808 16.4434 47.1187 15.8813C46.5566 15.3192 45.7949 15.0024 45 15H9C8.20508 15.0024 7.4434 15.3192 6.8813 15.8813C6.31921 16.4434 6.00237 17.2051 6 18V40C6.00237 40.7949 6.31921 41.5566 6.8813 42.1187C7.4434 42.6808 8.20508 42.9976 9 43H21.59L27.29 48.71C27.4792 48.8965 27.7343 49.0008 28 49C28.1312 49.0035 28.2613 48.9761 28.38 48.92C28.5636 48.8464 28.7209 48.7194 28.8315 48.5554C28.942 48.3913 29.0008 48.1978 29 48V43H32V53.27L31.87 53.04C31.5202 52.4295 31.0148 51.9227 30.4051 51.5713C29.7955 51.2199 29.1036 51.0366 28.4 51.04C27.697 51.0376 27.0063 51.2241 26.4 51.58C25.4859 52.1111 24.8185 52.9817 24.5432 54.0024C24.2679 55.0231 24.4069 56.1113 24.93 57.03L26.61 60H7C6.20508 59.9976 5.4434 59.6808 4.8813 59.1187C4.31921 58.5566 4.00237 57.7949 4 57V12H60V57ZM60 10H4V7C4.00237 6.20508 4.31921 5.4434 4.8813 4.8813C5.4434 4.31921 6.20508 4.00237 7 4H57C57.7949 4.00237 58.5566 4.31921 59.1187 4.8813C59.6808 5.4434 59.9976 6.20508 60 7V10Z" fill="black"/>
<path d="M10 6H8V8H10V6Z" fill="black"/>
<path d="M14 6H12V8H14V6Z" fill="black"/>
<path d="M18 6H16V8H18V6Z" fill="black"/>
<path d="M30.078 26H29.178L28.9 25.146C28.7685 24.7459 28.514 24.3975 28.1728 24.1505C27.8316 23.9035 27.4212 23.7705 27 23.7705C26.5788 23.7705 26.1684 23.9035 25.8272 24.1505C25.486 24.3975 25.2315 24.7459 25.1 25.146L24.82 26H23.92C23.4977 26.0001 23.0863 26.1339 22.7447 26.3822C22.4031 26.6305 22.1489 26.9806 22.0184 27.3822C21.888 27.7839 21.888 28.2165 22.0185 28.6181C22.1491 29.0198 22.4034 29.3698 22.745 29.618L23.471 30.146L23.2 31C23.0697 31.4016 23.0698 31.8341 23.2003 32.2356C23.3309 32.6371 23.5851 32.987 23.9266 33.2352C24.2682 33.4834 24.6795 33.6172 25.1017 33.6173C25.5239 33.6174 25.9353 33.484 26.277 33.236L27 32.708L27.727 33.236C28.0688 33.4824 28.4796 33.6145 28.9009 33.6135C29.3222 33.6126 29.7325 33.4786 30.0732 33.2307C30.4138 32.9828 30.6675 32.6337 30.798 32.2331C30.9286 31.8326 30.9292 31.401 30.8 31L30.523 30.146L31.249 29.618C31.5904 29.37 31.8445 29.0203 31.9752 28.6191C32.1058 28.2179 32.1061 27.7856 31.9762 27.3841C31.8463 26.9827 31.5927 26.6326 31.2518 26.384C30.9108 26.1354 30.5 26.001 30.078 26ZM28.763 28.955C28.5922 29.0792 28.4651 29.2542 28.3999 29.455C28.3347 29.6559 28.3347 29.8722 28.4 30.073L28.9 31.618L27.586 30.663C27.4151 30.5388 27.2093 30.4719 26.998 30.4719C26.7867 30.4719 26.5809 30.5388 26.41 30.663L25.096 31.618L25.596 30.073C25.6613 29.8722 25.6613 29.6559 25.5961 29.455C25.5309 29.2542 25.4038 29.0792 25.233 28.955L23.922 28H25.547C25.7582 28 25.9639 27.9331 26.1348 27.809C26.3056 27.6849 26.4328 27.5098 26.498 27.309L26.998 25.752V25.764L27.498 27.309C27.5633 27.5098 27.6904 27.6849 27.8613 27.809C28.0321 27.9331 28.2378 28 28.449 28H30.074L28.763 28.955Z" fill="black"/>
<path d="M42.077 33.237C42.4224 32.9917 42.6798 32.6418 42.8109 32.2389C42.942 31.836 42.9399 31.4016 42.805 31L42.527 30.146L43.253 29.618C43.5946 29.3698 43.8489 29.0198 43.9795 28.6181C44.11 28.2165 44.11 27.7839 43.9796 27.3822C43.8491 26.9806 43.5949 26.6305 43.2533 26.3822C42.9117 26.1339 42.5003 26.0001 42.078 26H41.178L40.9 25.146C40.7685 24.7459 40.514 24.3975 40.1728 24.1505C39.8316 23.9035 39.4212 23.7705 39 23.7705C38.5788 23.7705 38.1684 23.9035 37.8272 24.1505C37.486 24.3975 37.2315 24.7459 37.1 25.146L36.82 26H35.92C35.4977 26.0001 35.0863 26.1339 34.7447 26.3822C34.4031 26.6305 34.1489 26.9806 34.0184 27.3822C33.888 27.7839 33.888 28.2165 34.0185 28.6181C34.1491 29.0198 34.4034 29.3698 34.745 29.618L35.471 30.146L35.2 31C35.0651 31.4016 35.063 31.836 35.1941 32.2389C35.3252 32.6418 35.5826 32.9917 35.928 33.237C36.2678 33.4893 36.6798 33.6255 37.103 33.6255C37.5262 33.6255 37.9382 33.4893 38.278 33.237L39 32.708L39.727 33.236C40.0668 33.4882 40.4787 33.6244 40.9018 33.6245C41.325 33.6247 41.737 33.4889 42.077 33.237V33.237ZM39.588 30.663C39.4171 30.5388 39.2113 30.4719 39 30.4719C38.7887 30.4719 38.5829 30.5388 38.412 30.663L37.098 31.618L37.598 30.073C37.6629 29.8722 37.6627 29.6561 37.5973 29.4554C37.5319 29.2548 37.4048 29.08 37.234 28.956L35.922 28H37.547C37.7582 28 37.9639 27.9331 38.1348 27.809C38.3056 27.6849 38.4328 27.5098 38.498 27.309L38.998 25.752L39.003 25.764L39.503 27.309C39.5683 27.5098 39.6954 27.6849 39.8663 27.809C40.0371 27.9331 40.2428 28 40.454 28H42.078L40.765 28.956C40.5942 29.08 40.4671 29.2548 40.4017 29.4554C40.3363 29.6561 40.3361 29.8722 40.401 30.073L40.901 31.618L39.588 30.663Z" fill="black"/>
<path d="M18.078 26H17.178L16.9 25.146C16.7685 24.7459 16.514 24.3975 16.1728 24.1505C15.8316 23.9035 15.4212 23.7705 15 23.7705C14.5788 23.7705 14.1684 23.9035 13.8272 24.1505C13.486 24.3975 13.2315 24.7459 13.1 25.146L12.82 26H11.92C11.4977 26.0001 11.0863 26.1339 10.7447 26.3822C10.4031 26.6305 10.1489 26.9806 10.0184 27.3822C9.88798 27.7839 9.88802 28.2165 10.0185 28.6181C10.1491 29.0198 10.4034 29.3698 10.745 29.618L11.471 30.146L11.2 31C11.0697 31.4016 11.0698 31.8341 11.2003 32.2356C11.3309 32.6371 11.5851 32.987 11.9266 33.2352C12.2682 33.4834 12.6795 33.6172 13.1017 33.6173C13.5239 33.6174 13.9353 33.484 14.277 33.236L15 32.708L15.727 33.236C16.0688 33.4824 16.4796 33.6145 16.9009 33.6135C17.3222 33.6126 17.7325 33.4786 18.0732 33.2307C18.4138 32.9828 18.6675 32.6337 18.798 32.2331C18.9286 31.8326 18.9292 31.401 18.8 31L18.523 30.146L19.249 29.618C19.5904 29.37 19.8445 29.0203 19.9752 28.6191C20.1058 28.2179 20.1061 27.7856 19.9762 27.3841C19.8463 26.9827 19.5927 26.6326 19.2518 26.384C18.9108 26.1354 18.5 26.001 18.078 26ZM16.763 28.955C16.5922 29.0792 16.4651 29.2542 16.3999 29.455C16.3347 29.6559 16.3347 29.8722 16.4 30.073L16.9 31.618L15.586 30.663C15.4151 30.5388 15.2093 30.4719 14.998 30.4719C14.7867 30.4719 14.5809 30.5388 14.41 30.663L13.096 31.618L13.596 30.073C13.6613 29.8722 13.6613 29.6559 13.5961 29.455C13.5309 29.2542 13.4038 29.0792 13.233 28.955L11.922 28H13.547C13.7582 28 13.9639 27.9331 14.1348 27.809C14.3056 27.6849 14.4328 27.5098 14.498 27.309L14.998 25.752L15.003 25.764L15.503 27.309C15.5683 27.5098 15.6954 27.6849 15.8663 27.809C16.0371 27.9331 16.2428 28 16.454 28H18.079L16.763 28.955Z" fill="black"/>
</svg>
